<ttFont>
          <CharString index="0">
            4 -60 rlineto
            132 311 hlineto
            147 -25 60 -179 -63 -63 -7 -8 -47 vhcurveto
            -104 vlineto
            2 19 70 5 40 hhcurveto
            95 14 -5 -81 hvcurveto
            -21 vlineto
            2 -38 -59 2 -23 hhcurveto
            -113 -32 -42 -115 hvcurveto
            return
          </CharString>
          <CharString index="1">
            rmoveto
            85 callsubr
            -193 96 callgsubr
            vhcurveto
            -85 callgsubr
            266 hlineto
            -197 194 rmoveto
            54 13 -10 -99 hvcurveto
            -136 hlineto
            96 1 8 13 60 hhcurveto
            return
          </CharString>
          <CharString index="2">
            152 hlineto
            -181 688 rlineto
            -209 hlineto
            -181 -688 rlineto
            149 -67 callgsubr
            -98 411 rmoveto
            68 -286 rlineto
            -142 hlineto
            68 286 rlineto
            return
          </CharString>
          <CharString index="3">
            -103 callgsubr
            endchar
          </CharString>
          <CharString index="4">
            rmoveto
            -105 callsubr
            return
          </CharString>
          <CharString index="5">
            -22 callgsubr
            104 -11 callgsubr
            -71 -140 rlineto
            return
          </CharString>
          <CharString index="6">
            8 -31 -37 10 -35 hhcurveto
            -79 149 callgsubr
            22 -6 -6 26 vhcurveto
            return
          </CharString>
          <CharString index="7">
            -134 -3 -14 -86 -86 -3 14 134 vhcurveto
            423 -150 -381 vlineto
            -247 17 -68 222 222 16 68 247 vhcurveto
            return
          </CharString>
          <CharString index="8">
            rmoveto
            134 hlineto
            86 130 rlineto
            8 -93 vlineto
            -60 -76 -59 76 rlineto
            -93 -8 hlineto
            return
          </CharString>
          <CharString index="9">
            rmoveto
            -423 vlineto
            -100 callsubr
            381 vlineto
            return
          </CharString>
          <CharString index="10">
            -262 hlineto
            -109 -6 -26 -61 -58 -5 6 118 vhcurveto
            273 -139 -328 vlineto
            return
          </CharString>
          <CharString index="11">
            rmoveto
            -161 vlineto
            -1 -17 -26 -2 -18 hhcurveto
            -107 -12 30 200 223 19 3 150 39 77 -9 -4 32 hvcurveto
            117 vlineto
            8 -32 -87 14 -79 hhcurveto
            -220 -48 -73 -279 -289 45 -63 218 62 86 9 13 57 hvcurveto
            385 -220 -121 vlineto
            return
          </CharString>
          <CharString index="12">
            204 14 83 181 hvcurveto
            451 -139 -255 vlineto
            -109 -5 -25 -62 -58 -5 6 118 vhcurveto
            265 -139 -313 vlineto
            -132 17 -64 118 59 45 17 49 22 vhcurveto
            8 -41 hlineto
            -103 -4 -15 -108 -34 -40 0 1 -51 vhcurveto
            -103 vlineto
            return
          </CharString>
          <CharString index="13">
            -75 hlineto
            -31 0 -10 -22 -17 -23 6 6 -25 vhcurveto
            return
          </CharString>
          <CharString index="14">
            rmoveto
            -6 103 -30 24 -61 17 rrcurveto
            4 vlineto
            67 20 37 38 123 vvcurveto
            123 -46 65 -131 vhcurveto
            -295 -688 149 246 86 hlineto
            73 3 -27 -67 6 hvcurveto
            11 -152 rlineto
            148 hlineto
            -238 368 rmoveto
            -89 196 90 hlineto
            75 7 -16 -82 -81 -10 -17 -73 hvcurveto
            return
          </CharString>
          <CharString index="15">
            -9 31 36 -9 35 hhcurveto
            79 3 48 86 hvcurveto
            return
          </CharString>
          <CharString index="16">
            404 126 -255 158 219 126 -219 152 255 126 -404 hlineto
            return
          </CharString>
          <CharString index="17">
            rmoveto
            119 callgsubr
          </CharString>
          <CharString index="18">
            rmoveto
            105 5 hlineto
            164 callsubr
            -136 -5 hlineto
            return
          </CharString>
          <CharString index="19">
            14 326 rmoveto
            -63 -6 8 130 130 6 8 63 34 17 -7 -30 8 hvcurveto
            8 -21 1 -33 -47 vvcurveto
            -51 -1 -34 -9 -21 vhcurveto
            -25 -8 -17 -7 -33 hhcurveto
            endchar
          </CharString>
          <CharString index="20">
            149 239 hlineto
            196 449 153 callgsubr
            -114 -296 rlineto
            -8 hlineto
            -115 296 rlineto
            -154 hlineto
            195 -449 rlineto
            return
          </CharString>
          <CharString index="21">
            139 0 12 70 70 1 -12 -139 return
          </CharString>
          <CharString index="22">
            rmoveto
            -81 -374 rlineto
            -9 hlineto
            -83 374 rlineto
            -141 hlineto
            132 -510 rlineto
            50 hlineto
            -49 -192 rlineto
            139 hlineto
            181 702 rlineto
            endchar
          </CharString>
          <CharString index="23">
            rmoveto
            117 vlineto
            -5 -31 -47 -3 -35 hhcurveto
            -127 -6 17 209 209 6 17 127 24 42 -3 -5 44 hvcurveto
            117 vlineto
            10 -33 -60 7 -51 hhcurveto
            -219 -30 -85 -267 -269 29 -83 220 91 callsubr
            endchar
          </CharString>
          <CharString index="24">
            -4 -31 -35 -3 -26 hhcurveto
            -81 -11 17 134 132 10 19 81 28 37 -3 -4 25 hvcurveto
            104 vlineto
            9 -34 -49 6 -46 hhcurveto
            -171 -21 -87 -176 return
          </CharString>
          <CharString index="25">
            170 hlineto
            114 510 rlineto
            -134 hlineto
            -63 -354 rlineto
            -8 hlineto
            -79 354 rlineto
            -132 hlineto
            -78 -354 rlineto
            -9 hlineto
            -63 354 rlineto
            -138 hlineto
            113 -510 rlineto
            172 hlineto
            63 279 rlineto
            8 hlineto
            endchar
          </CharString>
          <CharString index="26">
            888 -104 callgsubr
            return
          </CharString>
          <CharString index="27">
            121 -71 callgsubr
            return
          </CharString>
          <CharString index="28">
            -95 266 rlineto
            71 35 10 87 77 vvcurveto
            140 -25 83 -172 vhcurveto
            -277 -688 149 242 104 hlineto
            79 -242 rlineto
            -102 367 rmoveto
            -81 195 82 hlineto
            86 7 -14 -83 -84 -9 -14 -85 hvcurveto
            endchar
          </CharString>
          <CharString index="29">
            30 43 2 29 hhcurveto
            41 13 -1 return
          </CharString>
          <CharString index="30">
            80 21 -74 callsubr
            return
          </CharString>
          <CharString index="31">
            -888 -102 callgsubr
          </CharString>
          <CharString index="32">
            134 -123 134 hstemhm
            return
          </CharString>
          <CharString index="33">
            -21 194 127 250 125 return
          </CharString>
          <CharString index="34">
            137 688 -143 -367 -5 hlineto
            -58 callgsubr
            return
          </CharString>
          <CharString index="35">
            -38 callgsubr
            10 22 return
          </CharString>
          <CharString index="36">
            5 -137 vlineto
            return
          </CharString>
          <CharString index="37">
            48 55 11 57 27 hvcurveto
            7 hlineto
            return
          </CharString>
          <CharString index="38">
            118 rlineto
            -113 -4 hlineto
            return
          </CharString>
          <CharString index="39">
            -27 -8 -62 callsubr
            return
          </CharString>
          <CharString index="40">
            -22 callgsubr
            67 -11 callgsubr
            -34 -140 rlineto
            return
          </CharString>
          <CharString index="41">
            rmoveto
            4 vlineto
            -62 -69 callsubr
            return
          </CharString>
          <CharString index="42">
            -16 -5 rlineto
            -33 -11 133 callgsubr
            return
          </CharString>
          <CharString index="43">
            54 callsubr
            -78 callsubr
            return
          </CharString>
          <CharString index="44">
            rmoveto
            -117 vlineto
            256 1 11 12 294 vvcurveto
            381 -149 -435 vlineto
            -127 -2 -8 -116 -1 vhcurveto
            endchar
          </CharString>
          <CharString index="45">
            -15 callsubr
            109 109 return
          </CharString>
          <CharString index="46">
            -127 18 -63 117 vhcurveto
            return
          </CharString>
          <CharString index="47">
            -327 -311 -107 callgsubr
            return
          </CharString>
          <CharString index="48">
            -26 callsubr
            112 return
          </CharString>
          <CharString index="49">
            -69 callsubr
            87 -118 rlineto
            return
          </CharString>
          <CharString index="50">
            6 -30 -36 2 -43 hhcurveto
            -4 callsubr
            246 7 80 272 hvcurveto
            return
          </CharString>
          <CharString index="51">
            -104 -306 -107 callgsubr
            return
          </CharString>
          <CharString index="52">
            92 0 121 451 124 hstemhm
            51 150 -40 102 79 103 -41 150 hintmask 11100100
            51 hmoveto
            hintmask 11010100
            212 118 hlineto
            hintmask 11100100
            -55 10 -7 57 175 vvcurveto
            192 4 20 98 97 4 -20 -192 -175 -6 -57 -56 -10 vhcurveto
            hintmask 11101000
            -118 213 121 -11 vlineto
            -33 -8 -33 -12 -33 -9 rrcurveto
            6 vlineto
            hintmask 11100100
            77 39 32 93 149 vvcurveto
            220 -15 97 -236 -237 -15 -97 -220 -149 32 -93 78 -39 vhcurveto
            -6 vlineto
            -34 9 -33 12 -33 8 rrcurveto
            -10 hlineto
            endchar
          </CharString>
          <CharString index="53">
            -70 0 13 138 -86 callsubr
            -138 -1 -13 -70 hvcurveto
            return
          </CharString>
          <CharString index="54">
            17 22 -6 -6 26 return
          </CharString>
          <CharString index="55">
            rmoveto
            -71 callsubr
            -71 -140 rlineto
            -5 104 vlineto
            return
          </CharString>
          <CharString index="56">
            21 -40 callgsubr
            return
          </CharString>
          <CharString index="57">
            -64 0 136 436 124 hstemhm
            105 151 -139 126 11 148 hintmask 00000000
            hintmask 11010000
            117 222 rmoveto
            126 41 hlineto
            56 3 2 47 23 vhcurveto
            hintmask 11001000
            27 12 rlineto
            55 28 27 35 101 vvcurveto
            136 -70 40 -120 -54 -75 -7 -10 -49 vhcurveto
            -116 vlineto
            5 37 56 4 32 hhcurveto
            69 26 -3 -62 -52 -8 -9 -43 -21 hvcurveto
            hintmask 11010000
            -26 -11 rlineto
            -41 -19 -19 -20 -74 vvcurveto
            hintmask 11100000
            -12 -301 -90 callsubr
          </CharString>
          <CharString index="58">
            -221 -17 -69 -246 return
          </CharString>
          <CharString index="59">
            -108 40 -46 91 vhcurveto
            return
          </CharString>
          <CharString index="60">
            rmoveto
            139 328 hlineto
            hintmask 10011110
            -3 callgsubr
            hintmask 11001110
            -18 callsubr
            hintmask 10101110
            -77 callgsubr
            endchar
          </CharString>
          <CharString index="61">
            rmoveto
            436 60 vlineto
            111 5 -2 -216 -216 -4 -2 -112 hvcurveto
            return
          </CharString>
          <CharString index="62">
            rmoveto
            234 120 -234 hlineto
            return
          </CharString>
          <CharString index="63">
            rmoveto
            5 vlineto
            164 callsubr
            -136 -5 hlineto
            103 -140 rlineto
            return
          </CharString>
          <CharString index="64">
            140 rlineto
            return
          </CharString>
          <CharString index="65">
            66 11 6 92 vhcurveto
            100 vlineto
            -200 -42 -9 -189 hvcurveto
            -34 130 callgsubr
            return
          </CharString>
          <CharString index="66">
            -21 397 51 -51 113 -113 121 return
          </CharString>
          <CharString index="67">
            70 callsubr
            9 -77 -37 -49 -5 -6 54 callsubr
            31 42 123 callgsubr
            hintmask 11110100
            -16 -5 rlineto
            -33 -11 -10 -10 -39 vvcurveto
            hintmask 11100100
            191 -18 -78 callgsubr
          </CharString>
          <CharString index="68">
            rmoveto
            80 hlineto
            20 3 2 33 13 vhcurveto
            return
          </CharString>
          <CharString index="69">
            rmoveto
            108 29 33 72 hvcurveto
            hintmask 11110000
            62 -22 20 -41 9 vhcurveto
            3 vlineto
            hintmask 11101000
            40 9 20 25 56 vvcurveto
            72 -36 27 -97 -33 -46 -5 -5 -31 vhcurveto
            -67 vlineto
            3 28 36 2 26 hhcurveto
            51 11 -3 -38 -38 -11 -6 -31 hvcurveto
            -60 -70 hlineto
            hintmask 11100100
            60 hlineto
            35 10 -6 -41 -39 -15 -3 -45 -23 -40 2 3 -34 hvcurveto
            -67 vlineto
            -6 32 46 -4 33 hhcurveto
            endchar
          </CharString>
          <CharString index="70">
            rmoveto
            29 18 2 31 45 vvcurveto
            79 -5 36 -132 -131 -6 -36 -79 -46 2 -31 30 -17 vhcurveto
            -180 -687 rlineto
            149 -67 callgsubr
            35 -141 rlineto
            152 hlineto
            -286 831 rmoveto
            55 0 -11 -39 -39 0 -10 -55 -54 0 10 39 39 0 11 54 hvcurveto
            -73 -565 rmoveto
            68 286 rlineto
            6 hlineto
            68 -286 rlineto
            endchar
          </CharString>
          <CharString index="71">
            42 9 19 26 55 vvcurveto
            72 -37 27 -101 -101 -37 -27 -72 -55 20 -26 41 -9 vhcurveto
            -2 vlineto
            return
          </CharString>
          <CharString index="72">
            -198 136 return
          </CharString>
          <CharString index="73">
            rmoveto
            -23 callsubr
            hlineto
            endchar
          </CharString>
          <CharString index="74">
            rmoveto
            -94 callsubr
            hintmask 11011000
            -101 callsubr
            hintmask 10111000
            14 callgsubr
            endchar
          </CharString>
          <CharString index="75">
            -159 vmoveto
            -42 -10 5 42 43 9 5 43 42 9 -5 -43 -42 -10 -5 -41 hvcurveto
            endchar
          </CharString>
          <CharString index="76">
            116 callgsubr
            139 return
          </CharString>
          <CharString index="77">
            4 rmoveto
            -59 callgsubr
            hintmask 01011110
            -65 -97 callsubr
            hintmask 10011110
            -61 callsubr
            hintmask 00111110
            -69 callgsubr
            hintmask 01011110
            38 callgsubr
            hintmask 01011101
            40 callgsubr
            endchar
          </CharString>
          <CharString index="78">
            436 -81 callsubr
            -7 -888 -103 callsubr
            return
          </CharString>
          <CharString index="79">
            208 13 84 181 hvcurveto
            450 -131 vlineto
            return
          </CharString>
          <CharString index="80">
            528 171 -93 callsubr
            return
          </CharString>
          <CharString index="81">
            112 302 return
          </CharString>
          <CharString index="82">
            -212 hlineto
            148 -562 -46 callsubr
            return
          </CharString>
          <CharString index="83">
            48 150 206 150 return
          </CharString>
          <CharString index="84">
            80 callgsubr
            -149 return
          </CharString>
          <CharString index="85">
            -87 rmoveto
            96 callgsubr
            hvcurveto
            -85 callgsubr
            266 39 hlineto
            85 callsubr
            -193 vhcurveto
            -1 -109 98 callgsubr
          </CharString>
          <CharString index="86">
            -16 -7 -5 -32 -10 return
          </CharString>
          <CharString index="87">
            46 rmoveto
            99 62 67 110 126 vvcurveto
            125 -67 111 -99 62 vhcurveto
            -32 -51 rlineto
            82 -51 56 -92 -104 vvcurveto
            -105 -55 -91 -83 -52 vhcurveto
            -31 51 rmoveto
            65 41 44 73 83 vvcurveto
            83 -44 73 -66 41 vhcurveto
            -32 -51 rlineto
            49 -31 33 -54 -61 vvcurveto
            -62 -33 -53 -48 -31 vhcurveto
            return
          </CharString>
          <CharString index="88">
            59 -8 122 164 121 171 126 return
          </CharString>
          <CharString index="89">
            -59 -47 -17 -53 -24 hvcurveto
            -8 hlineto
            return
          </CharString>
          <CharString index="90">
            -227 0 136 552 -20 hstemhm
            65 166 -158 150 hintmask 00000000
            hintmask 11100000
            99 223 rmoveto
            -15 callgsubr
            hintmask 11010000
            -26 -223 40 callsubr
            endchar
          </CharString>
          <CharString index="91">
            -86 -3 14 134 hvcurveto
            2 callsubr
          </CharString>
          <CharString index="92">
            112 111 85 return
          </CharString>
          <CharString index="93">
            rmoveto
            80 12 callgsubr
            return
          </CharString>
          <CharString index="94">
            hstemhm
            58 150 return
          </CharString>
          <CharString index="95">
            107 callgsubr
            -87 77 callgsubr
            139 return
          </CharString>
          <CharString index="96">
            290 -168 -104 callgsubr
            return
          </CharString>
          <CharString index="97">
            888 -6 callgsubr
            return
          </CharString>
          <CharString index="98">
            457 266 rmoveto
            71 35 10 87 77 vvcurveto
            140 -25 83 -172 vhcurveto
            -277 -688 149 242 104 hlineto
            79 -242 rlineto
            156 hlineto
            -258 367 rmoveto
            -81 195 82 hlineto
            86 7 -14 -83 -84 -9 -14 -85 hvcurveto
            return
          </CharString>
          <CharString index="99">
            -63 -6 9 134 133 6 9 63 36 17 -8 -33 8 hvcurveto
            -5 callgsubr
            return
          </CharString>
          <CharString index="100">
            200 -33 -104 callgsubr
            return
          </CharString>
          <CharString index="101">
            40 140 return
          </CharString>
          <CharString index="102">
            -197 -13 -55 -208 -48 callgsubr
            return
          </CharString>
          <CharString index="103">
            -247 -6 -80 -272 -47 callgsubr
            return
          </CharString>
          <CharString index="104">
            hstemhm
            -6 callsubr
            return
          </CharString>
          <CharString index="105">
            771 rmoveto
            117 104 -117 hlineto
            return
          </CharString>
          <CharString index="106">
            rmoveto
            112 30 33 72 63 -22 19 -43 10 hvcurveto
            2 vlineto
            return
          </CharString>
          <CharString index="107">
            620 rmoveto
            142 123 -142 hlineto
            return
          </CharString>
          <CharString index="108">
            688 -20 return
          </CharString>
          <CharString index="109">
            65 callgsubr
            endchar
          </CharString>
          <CharString index="110">
            3 -205 113 93 120 389 -20 return
          </CharString>
          <CharString index="111">
            916 -102 callsubr
            -7 callsubr
            return
          </CharString>
          <CharString index="112">
            331 hmoveto
            151 hlineto
            -143 266 141 244 rlineto
            -145 hlineto
            -110 -200 rlineto
            -31 return
          </CharString>
          <CharString index="113">
            4 -61 rlineto
            131 743 -139 -287 -7 hlineto
            return
          </CharString>
          <CharString index="114">
            73 vlineto
            -1 -6 -5 0 -3 hhcurveto
            -35 -8 16 20 32 33 39 23 17 hvcurveto
            -109 hlineto
            -34 -33 -25 -43 -39 vvcurveto
            -46 25 -39 86 19 22 1 3 17 vhcurveto
            endchar
          </CharString>
          <CharString index="115">
            149 557 161 131 -471 -131 161 hlineto
            return
          </CharString>
          <CharString index="116">
            -42 -10 -22 -19 -63 vvcurveto
            -72 30 -33 111 vhcurveto
            return
          </CharString>
          <CharString index="117">
            hstem
            -24 callsubr
            vstem
            return
          </CharString>
          <CharString index="118">
            -238 -51 callsubr
            return
          </CharString>
          <CharString index="119">
            hstemhm
            35 149 13 150 15 149 return
          </CharString>
          <CharString index="120">
            367 126 -237 hlineto
            -24 158 rlineto
            225 126 -244 hlineto
            -24 152 rlineto
            304 126 -535 hlineto
            -252 -688 rlineto
            148 hlineto
            return
          </CharString>
          <CharString index="121">
            -53 callgsubr
            80 145 hstem
            -31 callsubr
            vstem
            return
          </CharString>
          <CharString index="122">
            410 hmoveto
            165 hlineto
            -198 360 195 328 rlineto
            -159 hlineto
            -155 -274 rlineto
            -45 274 -149 -688 149 286 45 hlineto
            return
          </CharString>
          <CharString index="123">
            101 -198 103 116 -40 callgsubr
            hstem
            30 callsubr
            vstem
            409 688 rmoveto
            -367 -5 vlineto
            -192 367 rlineto
            -149 return
          </CharString>
          <CharString index="124">
            610 -39 callsubr
            return
          </CharString>
          <CharString index="125">
            -86 callgsubr
            108 134 -123 134 107 callgsubr
            -108 76 162 139 -105 75 return
          </CharString>
          <CharString index="126">
            vhcurveto
            -115 vlineto
            -12 56 78 -9 51 hhcurveto
            18 387 rmoveto
            -75 -15 5 93 90 16 6 74 67 20 -4 -104 -70 -7 -16 -80 hvcurveto
            endchar
          </CharString>
          <CharString index="127">
            274 -7 78 -245 -245 -6 -78 -274 -274 6 -78 245 return
          </CharString>
          <CharString index="128">
            vlineto
            133 44 callgsubr
            return
          </CharString>
          <CharString index="129">
            81 hlineto
            83 -15 59 -123 35 callsubr
            vhcurveto
            return
          </CharString>
          <CharString index="130">
            hstem
            39 149 152 149 vstem
            return
          </CharString>
          <CharString index="131">
            -3 callsubr
            137 139 return
          </CharString>
          <CharString index="132">
            -53 -126 -101 33 -46 71 -17 vhcurveto
            -4 vlineto
            hintmask 11110010
            -72 -18 -38 -33 -115 vvcurveto
            -128 50 -63 193 vhcurveto
            hintmask 11101100
            413 vmoveto
            return
          </CharString>
          <CharString index="133">
            126 24 callgsubr
            -10 callgsubr
            return
          </CharString>
          <CharString index="134">
            rmoveto
            32 51 rlineto
            -14 9 -10 16 20 vvcurveto
            20 10 16 15 9 vhcurveto
            -32 51 rlineto
            -32 -20 -21 -35 -41 vvcurveto
            -42 21 -34 31 -20 vhcurveto
            return
          </CharString>
          <CharString index="135">
            38 callsubr
            hintmask 01011101
            return
          </CharString>
          <CharString index="136">
            -159 21 84 callsubr
            return
          </CharString>
          <CharString index="137">
            63 143 203 143 return
          </CharString>
          <CharString index="138">
            21 106 callsubr
            return
          </CharString>
          <CharString index="139">
            vstem
            282 -8 rmoveto
            224 7 71 281 281 -7 71 -224 -225 -7 -71 -281 -281 7 -71 225 hvcurveto
            return
          </CharString>
          <CharString index="140">
            22 hvcurveto
            hintmask 11001000
            23 10 rlineto
            40 19 19 20 74 vvcurveto
            79 -126 -41 vlineto
            -56 -3 -2 -42 -19 vhcurveto
            hintmask 11100000
            -37 -18 rlineto
            return
          </CharString>
          <CharString index="141">
            -8 rmoveto
            190 49 66 125 113 -39 36 -71 17 hvcurveto
            4 vlineto
            hintmask 11110000
            69 17 35 46 100 vvcurveto
            126 -61 54 return
          </CharString>
          <CharString index="142">
            -125 -17 -59 -83 return
          </CharString>
          <CharString index="143">
            143 vstem
            57 420 rmoveto
            143 128 -54 16 hlineto
            53 10 14 49 vhcurveto
            57 vlineto
            -132 -16 -36 -140 hvcurveto
            return
          </CharString>
          <CharString index="144">
            5 -29 -34 2 -40 hhcurveto
            -247 -6 -80 -272 -154 2 -93 46 -51 hvcurveto
            -48 -101 rlineto
            120 hlineto
            27 54 rlineto
            return
          </CharString>
          <CharString index="145">
            69 callsubr
            132 139 return
          </CharString>
          <CharString index="146">
            71 11 11 34 78 vvcurveto
            22 vlineto
            return
          </CharString>
          <CharString index="147">
            rmoveto
            150 136 -150 hlineto
            return
          </CharString>
          <CharString index="148">
            hmoveto
            68 callsubr
            return
          </CharString>
          <CharString index="149">
            3 -35 callsubr
            54 -80 callsubr
            107 callgsubr
            -25 151 4 139 return
          </CharString>
          <CharString index="150">
            rmoveto
            81 hlineto
            38 2 26 58 57 0 -26 -38 vhcurveto
            82 hlineto
            83 -16 59 -123 -125 -16 -59 -83 vhcurveto
            endchar
          </CharString>
          <CharString index="151">
            374 131 -225 557 -149 hlineto
            return
          </CharString>
          <CharString index="152">
            -21 246 122 196 124 return
          </CharString>
          <CharString index="153">
            64 148 176 150 return
          </CharString>
          <CharString index="154">
            -6 38 66 -5 54 hhcurveto
            return
          </CharString>
          <CharString index="155">
            rlineto
            -71 callsubr
            return
          </CharString>
          <CharString index="156">
            -117 92 callgsubr
            45 352 vstem
            397 hmoveto
            696 vlineto
            -207 -145 -143 -205 return
          </CharString>
          <CharString index="157">
            3 -198 103 116 81 callsubr
            return
          </CharString>
          <CharString index="158">
            vstem
            358 750 rmoveto
            86 130 rlineto
            8 -93 vlineto
            -60 -76 -59 76 rlineto
            -93 -8 hlineto
            85 -130 rlineto
            return
          </CharString>
          <CharString index="159">
            769 rmoveto
            57 vlineto
            -133 -15 -31 -120 hvcurveto
            -77 142 114 -54 14 vlineto
            34 11 9 49 vhcurveto
            return
          </CharString>
          <CharString index="160">
            97 hlineto
            123 314 rlineto
            65 -250 -72 156 vlineto
            return
          </CharString>
          <CharString index="161">
            -33 vhcurveto
            -71 vlineto
            2 return
          </CharString>
          <CharString index="162">
            3 callsubr
            108 145 hstem
            54 -44 callgsubr
            vstem
            return
          </CharString>
          <CharString index="163">
            rmoveto
            -99 -3 4 224 224 3 4 99 99 4 -4 -224 -224 -4 -4 -99 hvcurveto
            endchar
          </CharString>
          <CharString index="164">
            rmoveto
            54 -14 hlineto
            -34 -11 -9 -49 vhcurveto
            -57 vlineto
            133 15 31 121 hvcurveto
            76 -142 vlineto
            endchar
          </CharString>
          <CharString index="165">
            -181 623 120 hstem
            49 234 vstem
            49 623 -45 callsubr
            endchar
          </CharString>
          <CharString index="166">
            21 73 callsubr
            return
          </CharString>
          <CharString index="167">
            120 -112 112 -51 51 285 return
          </CharString>
          <CharString index="168">
            21 101 callsubr
            return
          </CharString>
          <CharString index="169">
            -7 36 66 -5 57 hhcurveto
            return
          </CharString>
          <CharString index="170">
            -15 -198 103 116 137 callsubr
            110 140 vstem
            return
          </CharString>
          <CharString index="171">
            -23 callsubr
            -276 -188 276 -149 -688 149 280 188 hlineto
            return
          </CharString>
          <CharString index="172">
            61 callsubr
            132 100 hstem
            96 139 return
          </CharString>
          <CharString index="173">
            348 0 165 523 -20 return
          </CharString>
          <CharString index="174">
            203 rlineto
            56 -127 -56 vlineto
            return
          </CharString>
          <CharString index="175">
            140 743 -140 hlineto
            return
          </CharString>
          <CharString index="176">
            hstemhm
            33 133 return
          </CharString>
          <CharString index="177">
            -14 callsubr
            hintmask 11101000
            17 6 rlineto
            45 17 14 16 50 vvcurveto
            80 -54 return
          </CharString>
          <CharString index="178">
            -75 callsubr
            40 139 -109 76 169 130 -103 129 callgsubr
            return
          </CharString>
          <CharString index="179">
            139 329 hlineto
            126 -18 63 -117 vhcurveto
            return
          </CharString>
          <CharString index="180">
            -21 510 61 callgsubr
            return
          </CharString>
          <CharString index="181">
            29 -51 callsubr
            return
          </CharString>
          <CharString index="182">
            126 436 126 return
          </CharString>
          <CharString index="183">
            -4 86 rlineto
            -131 hlineto
            return
          </CharString>
          <CharString index="184">
            51 397 -20 return
          </CharString>
          <CharString index="185">
            -45 -5 -7 -32 vhcurveto
            -75 vlineto
            4 33 35 3 23 hhcurveto
            44 10 -4 -33 -35 -10 -5 return
          </CharString>
          <CharString index="186">
            149 hintmask 00000000
            return
          </CharString>
          <CharString index="187">
            138 28 -75 callsubr
            -336 102 callsubr
            hintmask 10111000
            11 return
          </CharString>
          <CharString index="188">
            -41 callsubr
            1 callgsubr
            return
          </CharString>
          <CharString index="189">
            -189 rmoveto
            125 hlineto
            36 192 rlineto
            5 -92 vlineto
            -69 -192 rlineto
            endchar
          </CharString>
          <CharString index="190">
            138 -39 callgsubr
            return
          </CharString>
          <CharString index="191">
            -21 381 137 -8 -20 return
          </CharString>
          <CharString index="192">
            188 -3 76 return
          </CharString>
          <CharString index="193">
            18 hvcurveto
            4 vlineto
            hintmask 11101100
            70 17 34 46 101 vvcurveto
            126 -61 53 -176 return
          </CharString>
          <CharString index="194">
            -116 10 -9 155 rlineto
            -91 hlineto
            -9 -155 -114 -10 rlineto
            -90 vlineto
            return
          </CharString>
          <CharString index="195">
            122 hstem
            -355 342 vstem
            return
          </CharString>
          <CharString index="196">
            131 hstem
            174 149 vstem
            return
          </CharString>
          <CharString index="197">
            97 -3 64 -23 40 vhcurveto
            return
          </CharString>
          <CharString index="198">
            49 62 7 10 36 hvcurveto
            return
          </CharString>
          <CharString index="199">
            136 hstem
            57 151 return
          </CharString>
          <CharString index="200">
            89 8 12 32 85 vvcurveto
            return
          </CharString>
          <CharString index="201">
            hstemhm
            64 149 return
          </CharString>
          <CharString index="202">
            72 89 70 85 72 hstemhm
            76 133 -31 91 -88 91 hintmask 11100100
            135 return
          </CharString>
          <CharString index="203">
            453 0 112 -99 -21 405 59 -59 121 -120 112 return
          </CharString>
          <CharString index="204">
            8 80 81 16 10 77 76 17 -10 -81 -80 -19 -8 -74 hvcurveto
            endchar
          </CharString>
          <CharString index="205">
            369 252 104 hstem
            55 773 vstem
            return
          </CharString>
          <CharString index="206">
            133 callsubr
            27 151 28 150 return
          </CharString>
          <CharString index="207">
            hintmask 00000000
            hintmask 11110100
            return
          </CharString>
          <CharString index="208">
            -21 398 112 return
          </CharString>
          <CharString index="209">
            76 196 75 return
          </CharString>
          <CharString index="210">
            28 37 41 127 vvcurveto
            174 -100 17 -117 -66 -87 -8 -12 return
          </CharString>
          <CharString index="211">
            rmoveto
            95 hlineto
            -86 199 86 200 rlineto
            -95 hlineto
            -107 -200 rlineto
            return
          </CharString>
          <CharString index="212">
            108 callgsubr
            28 return
          </CharString>
          <CharString index="213">
            -21 510 -20 return
          </CharString>
          <CharString index="214">
            1077 rmoveto
            -94 callsubr
            return
          </CharString>
          <CharString index="215">
            hstem
            28 128 vstem
            28 269 rmoveto
            98 hlineto
            30 249 rlineto
            return
          </CharString>
          <CharString index="216">
            30 43 123 callgsubr
            return
          </CharString>
          <CharString index="217">
            118 callsubr
            28 return
          </CharString>
          <CharString index="218">
            3 21 151 callgsubr
            return
          </CharString>
          <CharString index="219">
            -4 69 -44 -21 160 64 return
          </CharString>
          <CharString index="220">
            145 69 callsubr
            return
          </CharString>
          <CharString index="221">
            87 152 callsubr
            return
          </CharString>
          <CharString index="222">
            139 216 hlineto
            return
          </CharString>
          <CharString index="223">
            -275 429 259 hstemhm
            56 127 hintmask 00000000
            hintmask 11000000
            return
          </CharString>
          <CharString index="224">
            vstem
            -1 628 rmoveto
            567 60 -567 hlineto
            -688 vmoveto
            return
          </CharString>
          <CharString index="225">
            -75 callgsubr
            46 138 return
          </CharString>
          <CharString index="226">
            -92 callsubr
            hintmask 11101010
            return
          </CharString>
          <CharString index="227">
            hhcurveto
            -187 -41 -60 -178 -174 62 -29 122 return
          </CharString>
          <CharString index="228">
            72 71 71 103 71 hstem
            23 86 100 89 vstem
            148 return
          </CharString>
          <CharString index="229">
            vlineto
            -66 -184 rlineto
            -5 125 vlineto
            35 189 rlineto
            return
          </CharString>
          <CharString index="230">
            63 100 64 hstem
            -283 81 108 81 vstem
            -149 return
          </CharString>
          <CharString index="231">
            109 6 26 61 57 6 -6 -118 vhcurveto
            endchar
          </CharString>
          <CharString index="232">
            -280 598 145 hstem
            13 return
          </CharString>
          <CharString index="233">
            205 -145 143 -207 return
          </CharString>
          <CharString index="234">
            rmoveto
            -234 -120 234 hlineto
            return
          </CharString>
          <CharString index="235">
            139 398 103 112 -103 return
          </CharString>
          <CharString index="236">
            -196 76 112 return
          </CharString>
          <CharString index="237">
            60 60 60 60 60 return
          </CharString>
          <CharString index="238">
            4 -62 rlineto
            131 return
          </CharString>
          <CharString index="239">
            hstem
            64 149 vstem
            return
          </CharString>
          <CharString index="240">
            hstemhm
            48 150 return
          </CharString>
          <CharString index="241">
            -251 -161 904 hstem
            69 125 vstem
            69 return
          </CharString>
          <CharString index="242">
            -8 120 179 114 171 120 hstemhm
            return
          </CharString>
          <CharString index="243">
            hstemhm
            33 132 133 140 135 131 return
          </CharString>
          <CharString index="244">
            106 callsubr
            130 123 hstem
            55 140 return
          </CharString>
          <CharString index="245">
            73 239 72 hstem
            30 88 70 91 vstem
            118 return
          </CharString>
          <CharString index="246">
            527 156 callsubr
            return
          </CharString>
          <CharString index="247">
            -8 124 139 124 194 123 hstem
            return
          </CharString>
          <CharString index="248">
            -8 124 193 123 131 125 hstem
            return
          </CharString>
          <CharString index="249">
            72 101 71 67 72 hstem
            45 80 74 90 vstem
            41 return
          </CharString>
          <CharString index="250">
            90 callgsubr
            endchar
          </CharString>
          <CharString index="251">
            -51 callsubr
            hstem
            return
          </CharString>
          <CharString index="252">
            hstemhm
            40 139 return
          </CharString>
          <CharString index="253">
            -24 -92 rlineto
            -74 hlineto
            106 233 rlineto
            -94 hlineto
            return
          </CharString>
          <CharString index="254">
            38 3 20 hhcurveto
            42 11 -2 -31 -25 -6 -6 return
          </CharString>
          <CharString index="255">
            891 -39 callsubr
            return
          </CharString>
          <CharString index="256">
            hmoveto
            148 138 72 124 -72 175 return
          </CharString>
          <CharString index="257">
            73 vlineto
            -4 -6 -1 -6 hhcurveto
            return
          </CharString>
          <CharString index="258">
            hstem
            10 571 vstem
            return
          </CharString>
          <CharString index="259">
            -8 126 452 return
          </CharString>
          <CharString index="260">
            145 hstemhm
            -24 callgsubr
            return
          </CharString>
          <CharString index="261">
            -8 rmoveto
            192 51 63 128 115 return
          </CharString>
          <CharString index="262">
            vstem
            55 41 callsubr
            return
          </CharString>
          <CharString index="263">
            780 rmoveto
            -59 callgsubr
            return
          </CharString>
          <CharString index="264">
            98 21 -21 280 132 276 -20 return
          </CharString>
          <CharString index="265">
            -63 callgsubr
            hstemhm
            39 149 return
          </CharString>
          <CharString index="266">
            110 hstem
            197 110 vstem
            197 return
          </CharString>
          <CharString index="267">
            0 152 callgsubr
            hstem
            64 149 return
          </CharString>
          <CharString index="268">
            21 -21 138 124 426 -20 hstem
            return
          </CharString>
          <CharString index="269">
            -102 -241 rlineto
            -63 162 vlineto
            endchar
          </CharString>
          <CharString index="270">
            hintmask 00000000
            hintmask 11111100
            return
          </CharString>
          <CharString index="271">
            -72 -43 callsubr
            return
          </CharString>
          <CharString index="272">
            hstemhm
            55 139 return
          </CharString>
        <CharString name=".notdef">
          -14 0 50 49 70 383 50 48 50 hstemhm
          0 50 49 53 73 60 -56 53 57 54 57 50 hintmask 1111110111000000
          0 vmoveto
          500 700 -500 hlineto
          450 -50 rmoveto
          -600 -400 600 vlineto
          179 -435 rmoveto
          53 53 hlineto
          33 21 18 23 19 vhcurveto
          30 26 37 36 67 vvcurveto
          12 -3 123 -140 -140 -11 -124 -23 -13 3 -14 1 -4 vhcurveto
          49 28 hlineto
          23 8 77 90 77 12 -59 -28 -51 -28 -24 -28 -23 vhcurveto
          -28 -23 -26 -23 -43 vvcurveto
          hintmask 1111111011000000
          -4 -179 rmoveto
          60 70 -60 hlineto
          endchar
        </CharString>
        <CharString name="A">
          -75 callgsubr
          151 callsubr
          429 hmoveto
          -105 callsubr
          endchar
        </CharString>
        <CharString name="A.ss01">
          -77 callsubr
          -39 callgsubr
          386 hmoveto
          -106 callgsubr
          endchar
        </CharString>
        <CharString name="AE">
          110 callgsubr
          hstemhm
          -14 787 hintmask 10111000
          406 hmoveto
          13 callsubr
          hintmask 11111000
          57 callgsubr
        </CharString>
        <CharString name="AEacute">
          110 callgsubr
          55 145 hstemhm
          -14 787 hintmask 10111100
          353 743 -102 callsubr
          53 -748 rmoveto
          13 callsubr
          hintmask 11111100
          57 callgsubr
        </CharString>
        <CharString name="Aacute">
          -75 callgsubr
          62 145 151 callsubr
          220 750 -102 callsubr
          209 -755 -102 callgsubr
        </CharString>
        <CharString name="Aacute.ss01">
          -77 callsubr
          54 145 -39 callgsubr
          243 750 -102 callsubr
          143 -755 rmoveto
          -106 callgsubr
          endchar
        </CharString>
        <CharString name="Abreve">
          -75 callgsubr
          58 79 hstem
          156 -12 callgsubr
          vstem
          -29 callsubr
          endchar
        </CharString>
        <CharString name="Abreve.ss01">
          -77 callsubr
          50 79 -13 callsubr
          -51 -12 callgsubr
          -51 149 163 callgsubr
          437 34 callgsubr
          -51 -888 rmoveto
          -106 callgsubr
          endchar
        </CharString>
        <CharString name="Acircumflex">
          -75 callgsubr
          62 138 151 callsubr
          143 750 -107 callgsubr
          286 -758 -102 callgsubr
        </CharString>
        <CharString name="Acircumflex.ss01">
          -77 callsubr
          53 83 callsubr
          148 749 -107 callgsubr
          238 -757 rmoveto
          -106 callgsubr
          endchar
        </CharString>
        <CharString name="Adieresis">
          -75 callgsubr
          91 104 hstem
          142 -25 callgsubr
          vstem
          142 779 -89 callgsubr
          99 -883 -102 callgsubr
        </CharString>
        <CharString name="Adieresis.ss01">
          -77 callsubr
          81 104 -13 callsubr
          -59 -25 callgsubr
          -68 149 163 callgsubr
          149 777 -89 callgsubr
          hintmask 11111001
          49 -881 rmoveto
          -106 callgsubr
          endchar
        </CharString>
        <CharString name="Agrave">
          -75 callgsubr
          62 145 151 callsubr
          258 750 -89 callsubr
          274 -890 -102 callgsubr
        </CharString>
        <CharString name="Agrave.ss01">
          -77 callsubr
          54 145 -39 callgsubr
          254 750 -89 callsubr
          235 -890 rmoveto
          -106 callgsubr
          endchar
        </CharString>
        <CharString name="Amacron">
          -75 callgsubr
          80 120 hstem
          178 234 vstem
          178 768 -45 callsubr
          251 -76 callsubr
        </CharString>
        <CharString name="Amacron.ss01">
          -77 callsubr
          72 120 -13 callsubr
          -28 234 -28 149 100 callsubr
          180 768 -45 callsubr
          hintmask 11111010
          206 -888 rmoveto
          -106 callgsubr
          endchar
        </CharString>
        <CharString name="Aogonek">
          75 -196 76 141 -21 141 122 289 136 hstem
          372 169 vstem
          484 -84 rmoveto
          30 28 35 23 19 vhcurveto
          44 hlineto
          -180 688 rlineto
          -209 hlineto
          -180 -688 rlineto
          148 -67 callgsubr
          35 -140 rlineto
          -33 -33 -23 -41 -38 120 callgsubr
          -1 -5 -6 0 -4 hhcurveto
          -34 -8 16 20 hvcurveto
          -264 347 rmoveto
          69 289 rlineto
          6 hlineto
          69 -289 rlineto
          endchar
        </CharString>
        <CharString name="Aogonek.ss01">
          80 -196 76 141 -74 callsubr
          -13 callsubr
          121 169 -112 149 hintmask 01111010
          492 hmoveto
          43 -73 callgsubr
          -49 callsubr
          vhcurveto
          -381 150 194 178 -192 vlineto
          hintmask 11111100
          -33 -33 -24 -42 -38 vvcurveto
          -46 25 -39 86 19 22 1 3 17 vhcurveto
          73 vlineto
          hintmask 11111010
          -1 -6 -5 0 -3 hhcurveto
          -35 -8 16 20 hvcurveto
          hintmask 01111010
          30 28 35 23 19 vhcurveto
          -284 321 rmoveto
          102 vlineto
          134 2 14 86 86 4 -14 -134 vhcurveto
          -102 vlineto
          endchar
        </CharString>
        <CharString name="Aring">
          155 callgsubr
          hstem
          158 83 109 82 vstem
          401 687 -37 callsubr
        </CharString>
        <CharString name="Aring.ss01">
          -77 callsubr
          35 63 100 64 -13 callsubr
          -43 81 108 81 -49 149 -20 callgsubr
          hintmask 1111101100000000
          299 731 -79 callgsubr
          hintmask 1111110010000000
          87 -794 rmoveto
          -106 callgsubr
          endchar
        </CharString>
        <CharString name="Aringacute">
          155 callgsubr
          55 145 hstem
          158 83 109 82 vstem
          446 1091 -52 callsubr
          59 -264 -37 callsubr
        </CharString>
        <CharString name="Aringacute.ss01">
          -77 callsubr
          20 63 100 64 25 76 callgsubr
          -46 81 108 81 -46 149 -20 callgsubr
          hintmask 1111110110000000
          242 968 -102 callsubr
          54 -257 rmoveto
          129 7 35 78 hvcurveto
          hintmask 1110100110000000
          78 -7 36 -129 -128 -6 -36 -78 vhcurveto
          hintmask 1111110110000000
          -78 6 -35 128 vhcurveto
          63 vmoveto
          -53 0 11 39 hvcurveto
          hintmask 1110100110000000
          39 0 11 53 55 0 -11 -39 vhcurveto
          hintmask 1111110110000000
          -39 0 -11 -55 vhcurveto
          hintmask 1110101001000000
          90 -779 rmoveto
          -106 callgsubr
          endchar
        </CharString>
        <CharString name="Atilde">
          -75 callgsubr
          63 -75 callsubr
          121 102 callsubr
          hintmask 11101110
          468 896 rmoveto
          -94 callsubr
          hintmask 11110110
          -101 callsubr
          hintmask 11101110
          -92 callsubr
          -39 -896 -102 callgsubr
        </CharString>
        <CharString name="Atilde.ss01">
          -77 callsubr
          54 -75 callsubr
          58 150 -82 76 184 149 -137 150 callgsubr
          473 895 rmoveto
          -94 callsubr
          hintmask 1111001100000000
          -101 callsubr
          16 callgsubr
          hintmask 1110010100000000
          -87 -895 rmoveto
          -106 callgsubr
          endchar
        </CharString>
        <CharString name="B">
          64 0 126 160 124 63 callgsubr
          hstemhm
          64 148 169 149 -144 150 hintmask 11110100
          64 hmoveto
          287 hlineto
          137 48 68 115 106 -33 42 -77 18 hvcurveto
          4 vlineto
          hintmask 11111000
          71 17 33 47 98 vvcurveto
          116 -59 57 -121 vhcurveto
          -286 hlineto
          240 -278 rmoveto
          -92 152 92 hlineto
          65 12 -12 -64 -62 -16 -14 -61 hvcurveto
          hintmask 11110100
          4 -284 rmoveto
          -96 160 96 hlineto
          63 15 -13 -68 -67 -13 -12 -65 hvcurveto
          endchar
        </CharString>
        <CharString name="C">
          -34 -68 callgsubr
          132 callgsubr
          444 9 -84 callsubr
        </CharString>
        <CharString name="Cacute">
          -34 -68 callgsubr
          47 145 132 callgsubr
          184 743 -102 callsubr
          260 -739 -84 callsubr
        </CharString>
        <CharString name="Cacute.loclPLK">
          -34 -68 callgsubr
          47 145 132 callgsubr
          184 743 -67 callsubr
          260 -739 -84 callsubr
        </CharString>
        <CharString name="Ccaron">
          -34 -68 callgsubr
          54 138 132 callgsubr
          173 750 -99 callsubr
          356 -871 -84 callsubr
        </CharString>
        <CharString name="Ccedilla">
          -34 -68 callgsubr
          132 callgsubr
          331 118 rmoveto
          -127 -6 17 209 209 6 17 127 24 42 -3 -5 44 hvcurveto
          117 vlineto
          10 -33 -60 7 -51 hhcurveto
          -219 -30 -85 -267 -220 19 -95 127 -28 hvcurveto
          -67 -185 rlineto
          -5 125 vlineto
          34 181 rlineto
          11 hlineto
          91 callsubr
          117 vlineto
          -5 -31 -47 -3 -35 hhcurveto
          endchar
        </CharString>
        <CharString name="Ccircumflex">
          -34 -68 callgsubr
          54 138 132 callgsubr
          89 750 -107 callgsubr
          355 -749 -84 callsubr
        </CharString>
        <CharString name="Cdotaccent">
          -34 -68 callgsubr
          75 104 133 callsubr
          -16 117 hintmask 00000000
          hintmask 11101000
          182 -2 callsubr
          262 -866 rmoveto
          117 vlineto
          -5 -31 -47 -3 -35 hhcurveto
          hintmask 11110000
          -127 -6 17 209 209 6 17 127 24 42 -3 -5 44 hvcurveto
          117 vlineto
          10 -33 -60 7 -51 hhcurveto
          -219 -30 -85 -267 -269 29 -83 220 hvcurveto
          hintmask 11101000
          91 callsubr
          endchar
        </CharString>
        <CharString name="D">
          72 0 126 436 126 hstem
          64 148 176 150 vstem
          64 hmoveto
          -34 callgsubr
          endchar
        </CharString>
        <CharString name="Dcaron">
          72 46 callgsubr
          62 138 24 callgsubr
          226 750 -99 callsubr
          -77 -880 rmoveto
          -34 callgsubr
          endchar
        </CharString>
        <CharString name="Dcroat">
          -32 callgsubr
        </CharString>
        <CharString name="E">
          -72 callgsubr
          132 callsubr
          64 hmoveto
          -91 callgsubr
        </CharString>
        <CharString name="Eacute">
          -72 callgsubr
          62 145 132 callsubr
          212 750 -102 callsubr
          -148 -755 rmoveto
          -91 callgsubr
        </CharString>
        <CharString name="Ebreve">
          -72 callgsubr
          58 79 94 callsubr
          -91 -12 callgsubr
          hintmask 11111010
          402 888 rmoveto
          -82 hlineto
          -38 -2 -25 -58 vhcurveto
          hintmask 11110110
          -57 0 25 38 hvcurveto
          -81 hlineto
          -83 15 -59 123 vhcurveto
          hintmask 11111010
          -57 callgsubr
          hvcurveto
          -338 -888 rmoveto
          -91 callgsubr
        </CharString>
        <CharString name="Ecaron">
          -72 callgsubr
          62 138 132 callsubr
          195 750 -99 callsubr
          -46 -880 rmoveto
          -91 callgsubr
        </CharString>
        <CharString name="Ecircumflex">
          -72 callgsubr
          62 138 132 callsubr
          110 750 -107 callgsubr
          -46 -758 rmoveto
          -91 callgsubr
        </CharString>
        <CharString name="Edieresis">
          -72 callgsubr
          86 104 94 callsubr
          -101 -25 callgsubr
          163 callgsubr
          112 774 -89 callgsubr
          hintmask 11111010
          -236 -878 rmoveto
          -91 callgsubr
        </CharString>
        <CharString name="Edotaccent">
          -72 callgsubr
          83 104 94 callsubr
          -10 117 100 callsubr
          203 -2 callsubr
          hintmask 11111000
          -139 -875 rmoveto
          -91 callgsubr
        </CharString>
        <CharString name="Egrave">
          -72 callgsubr
          62 145 132 callsubr
          230 750 -89 callsubr
          -63 -890 rmoveto
          -91 callgsubr
        </CharString>
        <CharString name="Emacron">
          -72 callgsubr
          80 120 94 callsubr
          -68 234 100 callsubr
          145 768 -45 callsubr
          hintmask 11111000
          -81 -888 rmoveto
          -91 callgsubr
        </CharString>
        <CharString name="Eng">
          16 callsubr
          -688 143 396 4 hlineto
          200 -381 rlineto
          -58 vlineto
          -38 -4 -14 -68 vhcurveto
          -103 vlineto
          171 42 16 174 1 hvcurveto
          696 vlineto
          endchar
        </CharString>
        <CharString name="Eogonek">
          -6 -196 76 120 124 162 123 155 124 hstem
          63 149 76 169 vstem
          400 -196 rmoveto
          20 26 2 2 11 hvcurveto
          150 callsubr
          -32 -9 17 17 35 37 35 27 16 hvcurveto
          124 -252 162 216 123 -216 155 252 124 -401 -688 291 vlineto
          -39 -34 -27 -38 -43 vvcurveto
          -41 25 -40 87 vhcurveto
          endchar
        </CharString>
        <CharString name="Eth">
          -32 callgsubr
        </CharString>
        <CharString name="Euro">
          8 -8 123 115 77 76 76 114 123 hstem
          93 148 vstem
          338 -8 rmoveto
          64 60 10 6 20 hvcurveto
          115 vlineto
          -2 -16 -47 -6 -48 hhcurveto
          -97 -25 11 104 -6 hvcurveto
          195 77 -197 76 197 76 -195 hlineto
          103 6 26 11 96 hhcurveto
          35 53 -6 -2 20 hvcurveto
          114 vlineto
          6 -16 -58 11 -67 hhcurveto
          -180 -51 -62 -175 -11 hvcurveto
          -69 -76 66 -76 -66 -77 68 hlineto
          -183 11 49 -55 183 hhcurveto
          endchar
        </CharString>
        <CharString name="F">
          -35 21 -21 267 126 169 126 132 callsubr
          64 hmoveto
          149 267 208 126 -208 169 237 126 -386 hlineto
          endchar
        </CharString>
        <CharString name="G">
          -19 callsubr
          73 callgsubr
          377 278 -96 callsubr
          endchar
        </CharString>
        <CharString name="G.ss01">
          -18 callgsubr
          74 callgsubr
          309 -8 -95 callgsubr
          endchar
        </CharString>
        <CharString name="G_tilde.loclGUA">
          -19 callsubr
          47 -75 callsubr
          48 149 -84 76 188 139 -131 150 callgsubr
          460 8 callgsubr
          hintmask 1111001100000000
          -101 callsubr
          16 callgsubr
          hintmask 1111010100000000
          -83 -610 -96 callsubr
          endchar
        </CharString>
        <CharString name="Gbreve">
          -19 callsubr
          50 79 hstemhm
          48 149 -50 -12 callgsubr
          -50 139 163 callgsubr
          427 34 callgsubr
          -50 -610 -96 callsubr
          endchar
        </CharString>
        <CharString name="Gbreve.ss01">
          -18 callgsubr
          50 79 hstemhm
          48 148 -43 -12 callgsubr
          -41 146 163 callgsubr
          433 34 callgsubr
          -124 -896 -95 callgsubr
          endchar
        </CharString>
        <CharString name="Gcaron">
          -19 callsubr
          54 138 73 callgsubr
          219 750 -99 callsubr
          243 -602 -96 callsubr
          endchar
        </CharString>
        <CharString name="Gcaron.ss01">
          -18 callgsubr
          54 138 74 callgsubr
          225 750 -99 callsubr
          169 -888 -95 callgsubr
          endchar
        </CharString>
        <CharString name="Gcircumflex">
          -19 callsubr
          54 138 73 callgsubr
          135 750 -107 callgsubr
          242 -480 -96 callsubr
          endchar
        </CharString>
        <CharString name="Gcircumflex.ss01">
          -18 callgsubr
          54 138 74 callgsubr
          141 750 -107 callgsubr
          168 -766 -95 callgsubr
          endchar
        </CharString>
        <CharString name="Gcommaaccent">
          59 -17 callgsubr
          53 122 164 121 171 126 hstemhm
          48 149 22 142 16 139 hintmask 11111101
          377 278 -96 callsubr
          hintmask 11111111
          -83 -510 -84 callgsubr
        </CharString>
        <CharString name="Gcommaaccent.ss01">
          70 -17 callgsubr
          53 123 170 119 168 124 hstemhm
          48 148 29 142 25 146 hintmask 11111101
          309 -8 -95 callgsubr
          hintmask 11111111
          -90 -224 -84 callgsubr
        </CharString>
        <CharString name="Gdotaccent">
          -19 callsubr
          75 104 hstem
          48 149 31 117 32 139 vstem
          228 -2 callsubr
          149 -597 -96 callsubr
          endchar
        </CharString>
        <CharString name="Gdotaccent.ss01">
          -18 callgsubr
          75 104 hstem
          48 148 38 117 41 146 vstem
          234 -2 callsubr
          75 -883 -95 callgsubr
          endchar
        </CharString>
        <CharString name="Gtilde.loclGUA.ss01">
          -18 callgsubr
          47 -75 callsubr
          48 148 -77 102 callsubr
          -74 146 -20 callgsubr
          hintmask 1110110100000000
          466 8 callgsubr
          hintmask 1111001010000000
          -101 callsubr
          hintmask 1110110100000000
          -92 callsubr
          hintmask 1111010010000000
          -157 -896 -95 callgsubr
          endchar
        </CharString>
        <CharString name="H">
          157 callsubr
          hstem
          63 149 188 149 vstem
          50 callgsubr
          endchar
        </CharString>
        <CharString name="Hbar">
          98 21 -21 240 132 101 114 -114 215 165 callgsubr
          188 149 hintmask 11011100
          400 688 rmoveto
          hintmask 11101100
          -101 -188 vlineto
          hintmask 11011100
          101 -149 -688 149 240 188 -240 80 callgsubr
          vlineto
          -337 -316 rmoveto
          101 188 -101 vlineto
          endchar
        </CharString>
        <CharString name="Hcircumflex">
          157 callsubr
          82 138 hstem
          63 149 188 149 vstem
          155 750 -107 callgsubr
          245 -758 rmoveto
          64 callsubr
          endchar
        </CharString>
        <CharString name="I">
          11 callsubr
          102 callgsubr
          63 hmoveto
          -23 callsubr
          hlineto
          endchar
        </CharString>
        <CharString name="IJ">
          107 0 117 -96 -40 callgsubr
          165 callgsubr
          200 149 hintmask 01111000
          63 hmoveto
          -23 callsubr
          hlineto
          hintmask 10111000
          231 -571 -63 callsubr
        </CharString>
        <CharString name="Iacute">
          109 callgsubr
          67 750 -102 callsubr
          -4 -755 -34 callsubr
        </CharString>
        <CharString name="Iacute_J.loclNLD">
          107 0 117 -96 -40 callgsubr
          75 145 165 callgsubr
          200 149 hintmask 01111100
          81 743 -102 callsubr
          349 -5 -102 callsubr
          -367 -748 rmoveto
          -23 callsubr
          hlineto
          hintmask 10111100
          231 -571 -63 callsubr
        </CharString>
        <CharString name="Ibreve">
          11 callsubr
          78 79 hstemhm
          -2 81 -16 149 -16 82 100 callsubr
          278 -81 callsubr
          hintmask 11101000
          -215 -888 -34 callsubr
        </CharString>
        <CharString name="Icircumflex">
          11 callsubr
          81 138 102 callgsubr
          -14 749 -107 callgsubr
          77 -757 -34 callsubr
        </CharString>
        <CharString name="Idieresis">
          11 callsubr
          111 104 hstemhm
          -14 117 -40 149 -38 117 100 callsubr
          -14 779 -89 callgsubr
          hintmask 11101000
          -111 -883 -34 callsubr
        </CharString>
        <CharString name="Idotaccent">
          11 callsubr
          103 104 165 callgsubr
          -133 117 hintmask 00000000
          hintmask 11101000
          79 -2 callsubr
          hintmask 11110000
          -16 -875 -34 callsubr
        </CharString>
        <CharString name="Igrave">
          109 callgsubr
          108 750 -89 callsubr
          58 -890 -34 callsubr
        </CharString>
        <CharString name="Imacron">
          11 callsubr
          100 120 102 callgsubr
          20 768 -45 callsubr
          43 -888 -34 callsubr
        </CharString>
        <CharString name="Iogonek">
          -238 -196 76 141 -40 callgsubr
          102 callgsubr
          156 -196 rmoveto
          21 26 2 2 10 hvcurveto
          73 vlineto
          -1 -3 -7 0 -4 hhcurveto
          -34 -9 16 20 31 34 37 22 16 hvcurveto
          688 -149 -688 40 vlineto
          -34 -32 -24 -41 -38 vvcurveto
          -46 24 -39 87 vhcurveto
          endchar
        </CharString>
        <CharString name="Itilde">
          11 callsubr
          75 -75 callsubr
          -36 76 23 149 24 75 hintmask 00000000
          hintmask 11010110
          311 -10 callsubr
          -248 -888 -34 callsubr
        </CharString>
        <CharString name="J">
          -169 0 117 571 -20 hstemhm
          136 79 callsubr
          hintmask 11100000
          18 117 -63 callsubr
        </CharString>
        <CharString name="Jcircumflex">
          -169 0 117 -96 -40 callgsubr
          82 138 hstemhm
          136 149 hintmask 01111000
          59 750 -107 callgsubr
          hintmask 10111000
          -41 -641 -63 callsubr
        </CharString>
        <CharString name="K">
          68 21 -21 286 128 274 -20 132 callsubr
          15 callsubr
          endchar
        </CharString>
        <CharString name="Kcommaaccent">
          68 -17 callgsubr
          82 -21 286 128 274 -20 94 callsubr
          10 142 hintmask 11111100
          15 callsubr
          hintmask 11111110
          -41 -518 -84 callgsubr
        </CharString>
        <CharString name="L">
          -57 160 callsubr
          vstem
          22 callgsubr
          endchar
        </CharString>
        <CharString name="Lacute">
          -57 0 152 callgsubr
          75 145 132 callsubr
          124 743 -102 callsubr
          -60 -748 rmoveto
          44 callsubr
          endchar
        </CharString>
        <CharString name="Lcaron">
          -57 0 131 365 259 -67 -20 94 callsubr
          178 127 hintmask 00000000
          hintmask 11011000
          376 496 rmoveto
          97 hlineto
          45 67 callsubr
          -327 -699 rmoveto
          374 131 -225 hlineto
          hintmask 10111000
          557 -149 vlineto
          endchar
        </CharString>
        <CharString name="Lcommaaccent">
          -57 -17 callgsubr
          61 152 callgsubr
          94 callsubr
          -46 142 hintmask 11111000
          22 callgsubr
          hintmask 11110100
          97 -920 -84 callgsubr
        </CharString>
        <CharString name="Ldot">
          -57 0 131 173 136 248 -20 hstem
          64 149 88 151 vstem
          22 callgsubr
          237 -384 -90 callsubr
        </CharString>
        <CharString name="Lslash">
          -61 160 callsubr
          vstem
          213 131 rmoveto
          186 vlineto
          128 48 rlineto
          111 vlineto
          -128 -48 rlineto
          260 -149 -316 vlineto
          -51 -18 rlineto
          -111 vlineto
          51 19 rlineto
          -262 374 131 vlineto
          endchar
        </CharString>
        <CharString name="M">
          282 21 -21 485 203 0 -20 hstemhm
          63 140 386 144 hintmask 10111000
          589 hmoveto
          144 688 -213 hlineto
          -117 -452 rlineto
          -7 hlineto
          -118 452 rlineto
          -215 -688 140 hlineto
          hintmask 11011000
          485 6 vlineto
          127 -485 rlineto
          119 hlineto
          128 485 rlineto
          6 hlineto
          endchar
        </CharString>
        <CharString name="N">
          101 144 callsubr
          30 callsubr
          vstem
          37 callgsubr
          endchar
        </CharString>
        <CharString name="Nacute">
          115 callgsubr
          75 145 hstem
          30 callsubr
          vstem
          251 743 -102 callsubr
          164 -748 rmoveto
          -73 callsubr
          endchar
        </CharString>
        <CharString name="Nacute.loclPLK">
          115 callgsubr
          75 145 hstem
          30 callsubr
          vstem
          251 743 -67 callsubr
          164 -748 rmoveto
          -73 callsubr
          endchar
        </CharString>
        <CharString name="Ncaron">
          115 callgsubr
          82 138 hstem
          30 callsubr
          vstem
          240 750 -99 callsubr
          260 -880 rmoveto
          -73 callsubr
          endchar
        </CharString>
        <CharString name="Ncommaaccent">
          101 -17 callgsubr
          82 -40 callgsubr
          hstemhm
          63 143 34 142 27 143 hintmask 11111010
          37 callgsubr
          hintmask 11111110
          24 -628 -84 callgsubr
        </CharString>
        <CharString name="Ntilde">
          115 callgsubr
          84 -75 callsubr
          63 143 -73 102 callsubr
          -71 143 hintmask 00000000
          hintmask 11011010
          480 897 rmoveto
          -94 callsubr
          hintmask 11100101
          -101 callsubr
          hintmask 11011010
          119 callsubr
          -65 -897 rmoveto
          hintmask 11101001
          -73 callsubr
          endchar
        </CharString>
        <CharString name="O">
          87 -68 callgsubr
          10 callsubr
          301 -8 -105 callgsubr
          endchar
        </CharString>
        <CharString name="OE">
          343 0 126 158 126 63 callgsubr
          hstem
          47 151 205 151 vstem
          301 hmoveto
          511 126 -217 hlineto
          -21 -26 -3 -4 -17 hvcurveto
          17 41 5 55 1 69 rrcurveto
          222 126 -223 hlineto
          -1 66 -6 52 -15 41 rrcurveto
          -5 17 26 -2 21 hhcurveto
          217 126 -511 hlineto
          -247 -7 -78 -266 -266 7 -78 247 hvcurveto
          126 vmoveto
          -100 -3 4 214 214 3 4 100 99 3 -5 -213 -214 -3 -4 -99 hvcurveto
          endchar
        </CharString>
        <CharString name="Oacute">
          87 -68 callgsubr
          54 145 10 callsubr
          237 750 -102 callsubr
          64 -763 -105 callgsubr
          endchar
        </CharString>
        <CharString name="Oacute.loclPLK">
          87 -68 callgsubr
          47 145 10 callsubr
          244 743 -67 callsubr
          57 -756 -105 callgsubr
          endchar
        </CharString>
        <CharString name="Obreve">
          87 -68 callgsubr
          50 79 133 callsubr
          -37 -12 callgsubr
          -37 150 hintmask 00000000
          hintmask 11101100
          441 -81 callsubr
          hintmask 11110010
          -140 -896 -105 callgsubr
          endchar
        </CharString>
        <CharString name="Ocircumflex">
          87 -68 callgsubr
          54 138 10 callsubr
          147 750 -107 callgsubr
          154 -766 -105 callgsubr
          endchar
        </CharString>
        <CharString name="Odieresis">
          87 -68 callgsubr
          83 104 133 callsubr
          -51 -25 callgsubr
          -48 150 hintmask 00000000
          hintmask 11101100
          147 779 -89 callgsubr
          hintmask 11110010
          -34 -891 -105 callgsubr
          endchar
        </CharString>
        <CharString name="Ograve">
          87 -68 callgsubr
          54 145 10 callsubr
          253 750 -89 callsubr
          151 -898 -105 callgsubr
          endchar
        </CharString>
        <CharString name="Ohorn">
          -1 callgsubr
          89 callgsubr
          -30 90 hintmask 00000000
          hintmask 11001010
          524 156 callsubr
          -51 hlineto
          hintmask 10101100
          -57 callsubr
          hintmask 10011100
          68 callgsubr
          hintmask 10011010
          93 callsubr
          hintmask 11001010
          22 vlineto
          hintmask 10101100
          -313 -662 -62 callgsubr
        </CharString>
        <CharString name="Ohungarumlaut">
          87 -68 callgsubr
          59 122 10 callsubr
          174 755 -76 callgsubr
          -40 -767 -105 callgsubr
          endchar
        </CharString>
        <CharString name="Omacron">
          87 -68 callgsubr
          72 120 133 callsubr
          -14 234 -14 150 hintmask 00000000
          hintmask 11101000
          184 768 -45 callsubr
          hintmask 11110100
          117 -896 -105 callgsubr
          endchar
        </CharString>
        <CharString name="Oslash">
          135 callgsubr
          89 callgsubr
          hintmask 00000000
          hintmask 10011100
          503 644 160 callgsubr
          hintmask 01101100
          37 callsubr
          hintmask 10101100
          -5 29 35 -2 42 hhcurveto
          246 7 80 272 hvcurveto
          hintmask 10011100
          157 -2 92 -49 51 vhcurveto
          hintmask 10101100
          -202 -526 -62 callgsubr
        </CharString>
        <CharString name="Oslashacute">
          135 callgsubr
          74 29 callgsubr
          hintmask 10101110
          442 883 -52 callsubr
          hintmask 10011110
          165 -99 160 callgsubr
          hintmask 01101110
          37 callsubr
          hintmask 10101110
          -5 29 35 -2 42 hhcurveto
          246 7 80 272 hvcurveto
          hintmask 10011110
          157 -2 92 -49 51 vhcurveto
          hintmask 10101110
          -202 -526 -62 callgsubr
        </CharString>
        <CharString name="Otilde">
          87 -68 callgsubr
          55 87 callgsubr
          hintmask 00000000
          hintmask 11011010
          474 896 rmoveto
          -94 callsubr
          hintmask 11100101
          -101 callsubr
          hintmask 11011010
          -92 callsubr
          hintmask 11001001
          -173 -904 -105 callgsubr
          endchar
        </CharString>
        <CharString name="P">
          45 21 -21 222 126 214 126 124 callgsubr
          222 122 hlineto
          174 21 98 135 148 -27 85 -167 hvcurveto
          -272 hlineto
          149 -340 rmoveto
          214 74 vlineto
          85 8 -13 -94 -93 -8 -14 -85 hvcurveto
          endchar
        </CharString>
        <CharString name="Q">
          85 127 callgsubr
          48 149 205 149 vstem
          426 -115 rmoveto
          159 5 hlineto
          -97 146 rlineto
          58 48 5 93 167 vvcurveto
          20 callsubr
          22 19 1 2 18 vhcurveto
          -59 121 56 callsubr
        </CharString>
        <CharString name="R">
          17 callgsubr
          hstem
          64 149 175 150 vstem
          552 hmoveto
          -79 callsubr
        </CharString>
        <CharString name="R.ss01">
          18 callgsubr
          hstem
          63 149 172 151 vstem
          -27 callsubr
          endchar
        </CharString>
        <CharString name="Racute">
          17 callgsubr
          55 145 hstem
          64 149 175 150 vstem
          443 883 -52 callsubr
          213 -743 rmoveto
          -79 callsubr
        </CharString>
        <CharString name="Racute.ss01">
          18 callgsubr
          55 145 hstem
          63 149 172 151 vstem
          443 883 -52 callsubr
          189 -572 -93 callsubr
          endchar
        </CharString>
        <CharString name="Rcaron">
          17 callgsubr
          62 138 hstem
          64 149 175 150 51 callsubr
          328 -750 rmoveto
          -79 callsubr
        </CharString>
        <CharString name="Rcaron.ss01">
          18 callgsubr
          62 138 hstem
          63 149 172 151 51 callsubr
          304 -579 -93 callsubr
          endchar
        </CharString>
        <CharString name="Rcommaaccent">
          68 -17 callgsubr
          82 45 callgsubr
          94 callsubr
          10 142 23 150 hintmask 11111101
          -9 callsubr
          hintmask 11111111
          -71 -542 57 callsubr
        </CharString>
        <CharString name="Rcommaaccent.ss01">
          68 -17 callgsubr
          82 45 callsubr
          165 callgsubr
          11 142 19 151 hintmask 11111101
          -27 callsubr
          hintmask 11111111
          -78 -543 57 callsubr
        </CharString>
        <CharString name="S">
          126 callgsubr
          23 callsubr
          271 -8 rmoveto
          127 91 21 202 57 -8 39 -12 27 hvcurveto
          -100 callgsubr
          -11 60 80 -6 76 hhcurveto
          endchar
        </CharString>
        <CharString name="Sacute">
          126 callgsubr
          47 145 23 callsubr
          208 743 -102 callsubr
          63 -756 rmoveto
          127 91 21 202 57 -8 39 -12 27 hvcurveto
          -100 callgsubr
          -11 60 80 -6 76 hhcurveto
          endchar
        </CharString>
        <CharString name="Sacute.loclPLK">
          126 callgsubr
          47 145 23 callsubr
          208 743 -67 callsubr
          63 -756 rmoveto
          127 91 21 202 57 -8 39 -12 27 hvcurveto
          -100 callgsubr
          -11 60 80 -6 76 hhcurveto
          endchar
        </CharString>
        <CharString name="Scaron">
          126 callgsubr
          54 138 23 callsubr
          200 750 -99 callsubr
          156 -888 rmoveto
          127 91 21 202 57 -8 39 -12 27 hvcurveto
          -100 callgsubr
          -11 60 80 -6 76 hhcurveto
          endchar
        </CharString>
        <CharString name="Scedilla">
          14 -7 125 452 126 23 callsubr
          489 215 rmoveto
          57 -8 39 -12 27 vhcurveto
          -100 callgsubr
          45 -8 57 -6 58 -2 -64 -177 rcurveline
          -5 125 vlineto
          34 182 rlineto
          106 6 73 36 180 vvcurveto
          endchar
        </CharString>
        <CharString name="Scircumflex">
          126 callgsubr
          54 138 23 callsubr
          113 750 -107 callgsubr
          158 -766 rmoveto
          127 91 21 202 57 -8 39 -12 27 hvcurveto
          -100 callgsubr
          -11 60 80 -6 76 hhcurveto
          endchar
        </CharString>
        <CharString name="Scommaaccent">
          14 -17 callgsubr
          53 158 callsubr
          8 142 2 149 hintmask 11110100
          271 -8 rmoveto
          hintmask 11111010
          127 91 21 202 57 -8 39 -12 27 hvcurveto
          -100 callgsubr
          hintmask 11110100
          -11 60 80 -6 76 hhcurveto
          -81 -224 -84 callgsubr
        </CharString>
        <CharString name="T">
          -17 21 -21 557 89 callsubr
          174 hmoveto
          8 callsubr
          endchar
        </CharString>
        <CharString name="Tbar">
          -17 21 -21 280 109 168 89 callsubr
          484 557 rmoveto
          131 -471 -131 161 -168 -139 -109 139 -280 149 280 139 109 -139 168 vlineto
          endchar
        </CharString>
        <CharString name="Tcaron">
          -17 21 -21 557 131 62 138 hstem
          174 149 vstem
          181 750 -99 callsubr
          78 -880 rmoveto
          8 callsubr
          endchar
        </CharString>
        <CharString name="Thorn">
          45 21 -21 118 126 214 126 104 -20 124 callgsubr
          118 123 hlineto
          173 21 99 135 147 -26 85 -168 hvcurveto
          -123 104 -149 hlineto
          149 -444 rmoveto
          214 74 vlineto
          86 7 -13 -93 -94 -8 -14 -85 hvcurveto
          endchar
        </CharString>
        <CharString name="U">
          -51 callgsubr
          -39 callgsubr
          386 688 -98 callgsubr
        </CharString>
        <CharString name="Uacute">
          -51 callgsubr
          82 145 -39 callgsubr
          243 750 -102 callsubr
          143 -67 -98 callgsubr
        </CharString>
        <CharString name="Ubreve">
          -51 callgsubr
          78 79 -13 callsubr
          -51 -12 callgsubr
          -51 79 callsubr
          hintmask 11101100
          437 -81 callsubr
          hintmask 11110010
          -51 -200 -98 callgsubr
        </CharString>
        <CharString name="Ucircumflex">
          -51 callgsubr
          82 83 callsubr
          147 750 -107 callgsubr
          239 -70 -98 callgsubr
        </CharString>
        <CharString name="Udieresis">
          -51 callgsubr
          111 104 -13 callsubr
          -64 -25 callgsubr
          -63 79 callsubr
          hintmask 11101100
          144 779 -89 callgsubr
          hintmask 11110010
          54 -195 -98 callgsubr
        </CharString>
        <CharString name="Ugrave">
          -51 callgsubr
          82 145 -39 callgsubr
          255 750 -89 callsubr
          234 -202 -98 callgsubr
        </CharString>
        <CharString name="Uhorn">
          -51 callgsubr
          hstemhm
          -24 callgsubr
          -8 90 hintmask 00000000
          hintmask 11101000
          139 callsubr
          hintmask 11110000
          -78 -423 hlineto
          -100 callsubr
          328 vlineto
          hintmask 11101000
          39 callsubr
          endchar
        </CharString>
        <CharString name="Uhungarumlaut">
          -51 callgsubr
          87 122 -39 callgsubr
          170 755 -76 callgsubr
          49 -71 -98 callgsubr
        </CharString>
        <CharString name="Umacron">
          -51 callgsubr
          100 120 -39 callgsubr
          180 768 -45 callsubr
          206 -200 -98 callgsubr
        </CharString>
        <CharString name="Uogonek">
          80 129 callsubr
          125 571 -20 -13 callsubr
          67 169 -58 15 callgsubr
          vhcurveto
          hintmask 11111000
          26 hlineto
          -29 -32 -19 -37 -34 120 callgsubr
          -5 -6 -1 -3 hhcurveto
          -35 -8 16 20 51 34 30 40 24 hvcurveto
          hintmask 11110100
          67 39 7 86 161 vvcurveto
          381 vlineto
          endchar
        </CharString>
        <CharString name="Uring">
          -51 callgsubr
          48 63 100 64 -13 callsubr
          -46 81 108 81 -46 149 163 callgsubr
          296 716 -79 callgsubr
          hintmask 11011001
          90 -91 -98 callgsubr
        </CharString>
        <CharString name="Utilde">
          -51 callgsubr
          75 -75 callsubr
          58 150 -85 76 187 149 -140 75 hintmask 00000000
          hintmask 11011001
          470 8 callgsubr
          hintmask 11101010
          8 -31 -37 10 -35 hhcurveto
          -79 -3 -48 -86 hvcurveto
          hintmask 11100110
          -72 callsubr
          -53 callsubr
          vhcurveto
          hintmask 11011001
          119 callsubr
          -84 -200 -98 callgsubr
        </CharString>
        <CharString name="V">
          55 0 157 531 -20 hstem
          12 544 vstem
          181 hmoveto
          207 hlineto
          168 688 153 callgsubr
          -117 -531 rlineto
          -7 hlineto
          -119 531 rlineto
          -152 hlineto
          endchar
        </CharString>
        <CharString name="W">
          66 callsubr
          hstem
          18 836 vstem
          529 hmoveto
          -82 callgsubr
        </CharString>
        <CharString name="Wacute">
          66 callsubr
          75 145 hstem
          18 836 vstem
          375 743 -102 callsubr
          154 -748 rmoveto
          -82 callgsubr
        </CharString>
        <CharString name="Wcircumflex">
          66 callsubr
          82 138 hstem
          18 836 vstem
          280 750 -107 callgsubr
          249 -758 rmoveto
          -82 callgsubr
        </CharString>
        <CharString name="Wdieresis">
          66 callsubr
          103 104 hstem
          279 -25 callgsubr
          vstem
          279 771 -89 callgsubr
          62 -875 rmoveto
          -82 callgsubr
        </CharString>
        <CharString name="Wgrave">
          66 callsubr
          75 145 hstem
          18 836 vstem
          384 743 -89 callsubr
          248 -883 rmoveto
          -82 callgsubr
        </CharString>
        <CharString name="X">
          73 144 callsubr
          13 561 vstem
          408 hmoveto
          166 hlineto
          -182 349 179 339 rlineto
          -161 hlineto
          -110 -227 rlineto
          -8 hlineto
          -110 227 rlineto
          -166 hlineto
          180 -342 -183 -346 rlineto
          160 hlineto
          113 236 rlineto
          9 hlineto
          endchar
        </CharString>
        <CharString name="Y">
          29 144 callsubr
          196 149 vstem
          196 hmoveto
          -87 callsubr
          endchar
        </CharString>
        <CharString name="Y.loclGUA">
          93 callgsubr
          12 callsubr
          hintmask 11101000
          362 688 rmoveto
          -223 vlineto
          -134 -3 -14 -86 -86 -3 14 134 vhcurveto
          223 -149 -181 vlineto
          hintmask 11111000
          -215 12 -79 150 -17 vhcurveto
          -196 150 195 vlineto
          hintmask 11101000
          28 callgsubr
        </CharString>
        <CharString name="Yacute">
          74 callsubr
          82 145 hstem
          196 149 vstem
          222 750 -102 callsubr
          -26 -755 rmoveto
          -87 callsubr
          endchar
        </CharString>
        <CharString name="Yacute.loclGUA">
          93 callgsubr
          75 145 12 callsubr
          hintmask 11110100
          424 883 -52 callsubr
          42 -55 -81 callgsubr
          endchar
        </CharString>
        <CharString name="Ycircumflex">
          74 callsubr
          82 138 hstem
          196 149 vstem
          120 750 -107 callgsubr
          76 -758 rmoveto
          -87 callsubr
          endchar
        </CharString>
        <CharString name="Ycircumflex.loclGUA">
          93 callgsubr
          82 138 12 callsubr
          hintmask 11110100
          272 827 -54 callgsubr
          149 -62 -81 callgsubr
          endchar
        </CharString>
        <CharString name="Ydieresis">
          74 callsubr
          111 104 hstemhm
          123 117 -44 149 -34 117 100 callsubr
          123 779 -89 callgsubr
          hintmask 11101000
          -115 -883 rmoveto
          -87 callsubr
          endchar
        </CharString>
        <CharString name="Ydieresis.loclGUA">
          93 callgsubr
          103 104 hstemhm
          35 149 -65 117 -39 150 -40 117 -62 79 callsubr
          hintmask 11101010
          236 875 31 callgsubr
          188 104 31 callgsubr
          hintmask 11110001
          -62 -83 rmoveto
          -223 vlineto
          -134 -3 -14 -86 -86 -3 14 134 vhcurveto
          223 -149 -181 vlineto
          hintmask 11110101
          -215 12 -79 150 -17 vhcurveto
          -196 150 195 vlineto
          hintmask 11110001
          28 callgsubr
        </CharString>
        <CharString name="Ygrave">
          74 callsubr
          75 145 hstem
          196 149 vstem
          224 743 -89 callsubr
          75 -883 rmoveto
          -87 callsubr
          endchar
        </CharString>
        <CharString name="Ygrave.loclGUA">
          93 callgsubr
          75 145 12 callsubr
          hintmask 11110100
          330 743 -44 callsubr
          137 -55 -81 callgsubr
          endchar
        </CharString>
        <CharString name="Z">
          9 46 callgsubr
          hstem
          38 448 vstem
          38 hmoveto
          -74 callgsubr
          endchar
        </CharString>
        <CharString name="Zacute">
          9 46 callgsubr
          55 145 hstem
          38 448 vstem
          205 743 -102 callsubr
          -167 -748 rmoveto
          -74 callgsubr
          endchar
        </CharString>
        <CharString name="Zacute.loclPLK">
          9 46 callgsubr
          55 145 hstem
          38 448 vstem
          205 743 -67 callsubr
          -167 -748 rmoveto
          -74 callgsubr
          endchar
        </CharString>
        <CharString name="Zcaron">
          9 46 callgsubr
          62 138 hstem
          38 448 vstem
          201 750 -99 callsubr
          -78 -880 rmoveto
          -74 callgsubr
          endchar
        </CharString>
        <CharString name="Zdotaccent">
          9 46 callgsubr
          83 104 hstem
          203 117 vstem
          203 -2 callsubr
          -165 -875 rmoveto
          -74 callgsubr
          endchar
        </CharString>
        <CharString name="a">
          -87 callgsubr
          38 callsubr
          hintmask 00000000
          hintmask 10011110
          164 -8 rmoveto
          hintmask 00111010
          -70 callsubr
          hintmask 01011110
          -107 callsubr
          hintmask 10011110
          -48 callsubr
          hintmask 01011110
          -101 callgsubr
          endchar
        </CharString>
        <CharString name="aacute">
          -87 callgsubr
          80 145 28 callsubr
          188 598 -102 callsubr
          hintmask 10011111
          -24 -611 rmoveto
          hintmask 00111101
          -70 callsubr
          hintmask 01011111
          -107 callsubr
          hintmask 10011111
          -48 callsubr
          hintmask 01011111
          -101 callgsubr
          endchar
        </CharString>
        <CharString name="abreve">
          -87 callgsubr
          83 79 69 callsubr
          -60 81 111 139 -133 82 -20 callgsubr
          hintmask 0101110101000000
          386 -61 callgsubr
          hintmask 1001111010000000
          -222 -751 rmoveto
          hintmask 0011110110000000
          -70 callsubr
          hintmask 0101111010000000
          -107 callsubr
          hintmask 1001111010000000
          -48 callsubr
          hintmask 0101111010000000
          -101 callgsubr
          endchar
        </CharString>
        <CharString name="acircumflex">
          -87 callgsubr
          87 138 28 callsubr
          96 605 -107 callgsubr
          hintmask 10011111
          68 -621 rmoveto
          hintmask 00111101
          -70 callsubr
          hintmask 01011111
          -107 callsubr
          hintmask 10011111
          -48 callsubr
          hintmask 01011111
          -101 callgsubr
          endchar
        </CharString>
        <CharString name="acute">
          125 callsubr
          208 vstem
          13 598 -102 callsubr
          endchar
        </CharString>
        <CharString name="acute.case.loclPLK">
          -280 743 145 hstem
          13 171 vstem
          13 743 -67 callsubr
          endchar
        </CharString>
        <CharString name="acute.loclPLK">
          125 callsubr
          171 vstem
          13 598 -67 callsubr
          endchar
        </CharString>
        <CharString name="acutecomb">
          598 88 callgsubr
          -221 598 -102 callsubr
          endchar
        </CharString>
        <CharString name="acutecomb.case">
          743 88 callgsubr
          -221 743 -102 callsubr
          endchar
        </CharString>
        <CharString name="adieresis">
          -87 callgsubr
          106 104 69 callsubr
          -71 -25 callgsubr
          -102 139 hintmask 0101110101000000
          95 624 rmoveto
          117 104 -117 hlineto
          hintmask 1001111010000000
          188 -104 rmoveto
          117 104 -117 hlineto
          -119 -736 rmoveto
          hintmask 0011110101000000
          -70 callsubr
          hintmask 0101111001000000
          -107 callsubr
          hintmask 1001111010000000
          -48 callsubr
          hintmask 0101111001000000
          -101 callgsubr
          endchar
        </CharString>
        <CharString name="ae">
          82 callgsubr
          136 callsubr
          hintmask 01110111
          704 254 -42 callgsubr
          hintmask 10101111
          2 callgsubr
        </CharString>
        <CharString name="aeacute">
          82 callgsubr
          80 145 136 callsubr
          hintmask 0111011110000000
          524 738 -52 callsubr
          284 -344 -42 callgsubr
          hintmask 1010111110000000
          2 callgsubr
        </CharString>
        <CharString name="agrave">
          -87 callgsubr
          80 145 28 callsubr
          202 598 -89 callsubr
          hintmask 10011111
          65 -746 rmoveto
          hintmask 00111101
          -70 callsubr
          hintmask 01011111
          -107 callsubr
          hintmask 10011111
          -48 callsubr
          hintmask 01011111
          -101 callgsubr
          endchar
        </CharString>
        <CharString name="amacron">
          -87 callgsubr
          105 120 69 callsubr
          -37 234 -65 47 callgsubr
          hintmask 0101110100000000
          129 623 -45 callsubr
          hintmask 1001111010000000
          35 -751 134 callgsubr
          hintmask 0101111010000000
          -107 callsubr
          hintmask 1001111010000000
          -48 callsubr
          hintmask 0101111010000000
          -101 callgsubr
          endchar
        </CharString>
        <CharString name="ampersand">
          122 -8 114 184 114 177 115 hstemhm
          45 142 -136 142 -37 165 64 139 hintmask 11110010
          385 404 rmoveto
          -295 vlineto
          -2 -21 -22 -1 -22 hhcurveto
          -102 -31 10 82 75 14 17 76 hvcurveto
          hintmask 11100110
          44 114 hlineto
          hintmask 11101010
          -44 hlineto
          -75 -9 23 64 76 17 14 137 50 73 -5 -6 52 hvcurveto
          106 vlineto
          11 -61 -87 9 -61 hhcurveto
          -202 -60 -64 -116 hvcurveto
          hintmask 11100110
          -100 34 -45 71 -18 vhcurveto
          -4 vlineto
          hintmask 11110010
          -72 -18 -39 -35 -113 vvcurveto
          -121 46 -70 219 64 89 9 11 61 vhcurveto
          278 91 114 vlineto
          endchar
        </CharString>
        <CharString name="aogonek">
          -22 129 callsubr
          112 -83 -21 60 -50 callgsubr
          69 callsubr
          103 169 -140 47 callgsubr
          hintmask 1010110100000000
          423 -120 rmoveto
          -33 -9 16 18 hvcurveto
          hintmask 0010111010000000
          34 30 36 26 16 vhcurveto
          311 vlineto
          147 -25 60 -179 -63 -63 -7 -8 -47 vhcurveto
          -104 vlineto
          2 21 69 5 39 hhcurveto
          95 14 -5 -81 hvcurveto
          -21 vlineto
          2 -38 -59 2 -23 hhcurveto
          -113 -32 -42 -115 hvcurveto
          hintmask 0100111010000000
          -48 callsubr
          83 callgsubr
          4 -60 rlineto
          hintmask 1010110100000000
          23 hlineto
          -34 -32 -25 -40 -42 vvcurveto
          -42 25 -40 87 15 22 1 3 20 vhcurveto
          73 vlineto
          -5 -6 -1 -4 hhcurveto
          hintmask 0100111010000000
          -125 316 rmoveto
          -34 -4 -22 -7 -12 vhcurveto
          -19 -11 -20 -5 -29 hhcurveto
          -54 -7 10 44 51 9 9 43 hvcurveto
          80 hlineto
          endchar
        </CharString>
        <CharString name="approxequal">
          -36 91 135 -123 134 32 135 -124 135 hstemhm
          53 76 219 75 hintmask 10101100
          53 269 rmoveto
          -38 callgsubr
          11 24 19 24 -7 -6 28 vhcurveto
          hintmask 10011100
          -8 35 40 -10 37 hhcurveto
          85 2 49 86 hvcurveto
          -75 hlineto
          -32 0 -10 -24 -18 -25 7 6 -28 vhcurveto
          hintmask 10101100
          8 -35 -39 10 -38 hhcurveto
          -85 -3 -49 -86 hvcurveto
          -178 vmoveto
          -38 callgsubr
          11 24 19 24 -6 -7 28 vhcurveto
          hintmask 01101100
          -8 35 40 -9 37 hhcurveto
          85 2 48 86 hvcurveto
          -75 hlineto
          -31 0 -10 -24 -18 -25 6 6 -28 vhcurveto
          hintmask 10101100
          9 -35 -39 9 -38 hhcurveto
          -85 -3 -49 -86 hvcurveto
          endchar
        </CharString>
        <CharString name="aring">
          -87 callgsubr
          64 63 100 64 69 callsubr
          -54 81 105 139 -136 81 hintmask 0101111011000000
          246 582 rmoveto
          hintmask 0101111010100000
          129 7 35 78 78 -7 36 -129 -128 -6 -36 -78 hvcurveto
          hintmask 0101111011000000
          -78 6 -35 128 vhcurveto
          hintmask 0101111010100000
          63 vmoveto
          -53 0 11 39 39 0 11 53 55 0 -11 -39 -39 0 -11 -55 hvcurveto
          hintmask 1001111101000000
          -82 -653 rmoveto
          hintmask 0011111011000000
          -70 callsubr
          hintmask 0101111101000000
          -107 callsubr
          hintmask 1001111101000000
          -48 callsubr
          hintmask 0101111101000000
          -101 callgsubr
          endchar
        </CharString>
        <CharString name="aringacute">
          -87 callgsubr
          83 63 100 64 28 113 callsubr
          -55 81 106 139 -137 81 -20 callgsubr
          hintmask 0101111101010000
          191 856 -102 callsubr
          54 -260 rmoveto
          129 7 35 78 hvcurveto
          hintmask 0101111001010000
          78 -7 36 -129 -128 -6 -36 -78 vhcurveto
          hintmask 0101111101010000
          -78 6 -35 128 vhcurveto
          63 vmoveto
          -53 0 11 39 hvcurveto
          hintmask 0101111001010000
          39 0 11 53 55 0 -11 -39 vhcurveto
          hintmask 0101111101010000
          -39 0 -11 -55 vhcurveto
          hintmask 1001111010100000
          -81 -672 rmoveto
          hintmask 0011111001100000
          -70 callsubr
          hintmask 0101111010100000
          -107 callsubr
          hintmask 1001111010100000
          -48 callsubr
          hintmask 0101111010100000
          -101 callgsubr
          endchar
        </CharString>
        <CharString name="arrowboth">
          98 callsubr
          340 162 rmoveto
          -31 90 rlineto
          265 hlineto
          -31 -90 128 callgsubr
          31 -91 rlineto
          -265 hlineto
          31 91 -285 -143 rlineto
          endchar
        </CharString>
        <CharString name="arrowdown">
          -119 1 callsubr
          hstem
          146 104 vstem
          198 -85 rmoveto
          142 285 -90 -31 rlineto
          519 -104 -519 vlineto
          -91 31 rlineto
          endchar
        </CharString>
        <CharString name="arrowdown.ss01">
          -169 171 285 hstem
          30 285 vstem
          173 171 rmoveto
          142 285 rlineto
          -285 hlineto
          endchar
        </CharString>
        <CharString name="arrowleft">
          98 callsubr
          309 252 rmoveto
          519 104 -519 hlineto
          31 91 -285 -143 285 -142 rlineto
          endchar
        </CharString>
        <CharString name="arrowleft.ss01">
          -151 201 285 hstem
          30 285 vstem
          315 201 rmoveto
          285 vlineto
          -285 -143 rlineto
          endchar
        </CharString>
        <CharString name="arrowright">
          98 callsubr
          543 162 rmoveto
          128 callgsubr
          31 -91 rlineto
          -519 -104 519 hlineto
          endchar
        </CharString>
        <CharString name="arrowright.ss01">
          -151 201 285 hstem
          48 285 vstem
          48 201 rmoveto
          128 callgsubr
          rlineto
          endchar
        </CharString>
        <CharString name="arrowup">
          -119 691 -20 hstem
          146 104 vstem
          146 -82 rmoveto
          104 519 hlineto
          90 -31 -142 285 -143 -285 91 31 rlineto
          endchar
        </CharString>
        <CharString name="arrowup.ss01">
          -169 516 -20 hstem
          30 285 vstem
          30 231 rmoveto
          285 hlineto
          -142 285 rlineto
          endchar
        </CharString>
        <CharString name="arrowupdn">
          -119 696 -20 hstem
          146 104 vstem
          19 callgsubr
          endchar
        </CharString>
        <CharString name="arrowupdnbse">
          -119 -208 89 815 -20 hstemhm
          55 285 -194 104 hintmask 11010000
          19 callgsubr
          hintmask 11100000
          -408 vmoveto
          285 89 -285 hlineto
          endchar
        </CharString>
        <CharString name="asciicircum">
          -102 461 288 hstem
          17 377 vstem
          286 461 rmoveto
          108 hlineto
          -133 288 rlineto
          -110 hlineto
          -134 -288 rlineto
          109 hlineto
          80 190 rlineto
          endchar
        </CharString>
        <CharString name="asciitilde">
          -36 231 -75 callsubr
          53 76 219 75 hintmask 00000000
          hintmask 01110000
          423 376 rmoveto
          -75 hlineto
          -31 0 -10 -24 -18 -25 6 7 -28 vhcurveto
          hintmask 10110000
          8 -35 -39 9 -38 hhcurveto
          -85 -3 -49 -85 hvcurveto
          76 hlineto
          30 0 11 24 19 24 -6 -7 28 vhcurveto
          hintmask 01110000
          -8 35 40 -9 37 hhcurveto
          85 2 49 85 hvcurveto
          endchar
        </CharString>
        <CharString name="asterisk">
          -87 514 -20 194 -20 hstem
          180 67.5 vstem
          242 464 rmoveto
          103 -71 39 69 -113 52 113 54 -39 68 -103 -70 11 122 rlineto
          -78 hlineto
          10 -123 -103 71 -39 -68 112 -54 -112 -52 39 -69 103 71 -10 -122 rlineto
          78 hlineto
          endchar
        </CharString>
        <CharString name="asterisk.ss02">
          303 -14 719 hstem
          35 747 vstem
          178 -14 rmoveto
          231 170 231 -170 -90 276 232 174 rlineto
          -288 hlineto
          -85 269 -87 -269 rlineto
          -287 hlineto
          234 -174 rlineto
          endchar
        </CharString>
        <CharString name="at">
          301 -108 59 117 94 -87 58 128 72 88 97 119 59 hstemhm
          64 63 109 114 111 121 107 63 hintmask 1011111111000000
          408 -108 rmoveto
          91 43 0 2 39 hvcurveto
          61 vlineto
          -2 -23 -92 -2 -57 hhcurveto
          -45 -37 0 1 -28 hvcurveto
          -169 9 -3 49 284 vvcurveto
          258 3 63 125 17 vhcurveto
          4 37 50 1 66 hhcurveto
          74 54 -1 -6 37 hvcurveto
          114 -20 2 -68 -248 vvcurveto
          -159 -10 -2 -43 vhcurveto
          -54 208 hlineto
          126 -21 51 -153 -47 -54 -5 -8 -49 vhcurveto
          -90 vlineto
          3 35 50 3 26 hhcurveto
          83 9 -4 -68 hvcurveto
          -19 vlineto
          2 -36 -47 1 -21 hhcurveto
          -96 -25 -32 -101 hvcurveto
          hintmask 1101111111000000
          -91 32 -41 80 43 42 10 49 23 vhcurveto
          7 hlineto
          hintmask 1011111111000000
          5 -52 rlineto
          160 hlineto
          91 33 2 217 356 -11 46 -333 -332 -12 -47 -355 -354 12 -48 332 hvcurveto
          -7 270 rmoveto
          -46 -5 11 38 43 6 7 36 hvcurveto
          69 -24 hlineto
          -59 -9 -16 -51 vhcurveto
          endchar
        </CharString>
        <CharString name="atilde">
          -87 callgsubr
          80 -75 callsubr
          33 133 -94 76 150 139 -93 129 callgsubr
          hintmask 0101101010100000
          419 -43 callgsubr
          hintmask 0101110011000000
          -101 callsubr
          hintmask 0101101010100000
          -92 callsubr
          hintmask 1001110101000000
          -255 -751 rmoveto
          hintmask 0011110011000000
          -70 callsubr
          hintmask 0101110101000000
          -107 callsubr
          hintmask 1001110101000000
          -48 callsubr
          hintmask 0101110101000000
          -101 callgsubr
          endchar
        </CharString>
        <CharString name="b">
          -3 -8 60 callsubr
          121 165 callsubr
          138 164 callgsubr
          hintmask 10011100
          323 -8 rmoveto
          108 40 56 206 202 -37 62 -109 -57 -42 -15 -47 -25 hvcurveto
          -7 287 -139 hlineto
          hintmask 01011100
          -743 131 vlineto
          hintmask 00111100
          4 61 rlineto
          8 hlineto
          hintmask 10011100
          -56 24 52 -13 49 hhcurveto
          hintmask 01011100
          -61 120 rmoveto
          -32 -17 7 24 -8 hvcurveto
          -10 22 -1 36 0 54 0 58 2 35 22 flex1
          21 9 17 6 31 hhcurveto
          64 6 -9 -133 -134 -6 -9 -64 hvcurveto
          endchar
        </CharString>
        <CharString name="backslash">
          154 callgsubr
          239 -55 rmoveto
          121 hlineto
          -237 798 rlineto
          -121 hlineto
          endchar
        </CharString>
        <CharString name="bar">
          134 callsubr
          -161 rmoveto
          125 904 -125 hlineto
          endchar
        </CharString>
        <CharString name="bar.ss02">
          -16 92 callgsubr
          -1 500 vstem
          -1 hmoveto
          500 696 -500 hlineto
          endchar
        </CharString>
        <CharString name="braceleft">
          -178 -150 893 hstemhm
          22 103 -21 130 hintmask 10100000
          223 -150 rmoveto
          92 hlineto
          -34 40 -47 57 84 vvcurveto
          116 vlineto
          76 -32 54 -77 16 vhcurveto
          7 vlineto
          77 16 32 54 75 vvcurveto
          117 vlineto
          84 47 57 34 40 vhcurveto
          -92 hlineto
          -41 -21 -78 -70 -91 vvcurveto
          -119 vlineto
          -54 -11 -55 -71 -6 vhcurveto
          hintmask 11000000
          -62 vlineto
          hintmask 10100000
          71 -6 11 -55 -53 vvcurveto
          -120 vlineto
          -90 77 -70 42 -21 vhcurveto
          endchar
        </CharString>
        <CharString name="braceright">
          -178 -150 893 hstemhm
          102 129 -21 103 hintmask 11000000
          21 -150 rmoveto
          92 hlineto
          41 21 77 70 90 vvcurveto
          120 vlineto
          53 12 55 70 6 vhcurveto
          hintmask 10100000
          62 vlineto
          hintmask 11000000
          -70 6 -12 55 54 vvcurveto
          119 vlineto
          91 -77 70 -41 21 vhcurveto
          -92 hlineto
          33 -41 48 -56 -84 vvcurveto
          -117 vlineto
          -75 31 -54 77 -16 vhcurveto
          -7 vlineto
          -77 -16 -31 -54 -76 vvcurveto
          -116 vlineto
          -84 -48 -58 -33 -39 vhcurveto
          endchar
        </CharString>
        <CharString name="bracketleft">
          -178 -150 91 711 91 hstem
          65 129 vstem
          65 -150 rmoveto
          233 89 hlineto
          -104 4 rlineto
          707 vlineto
          104 4 rlineto
          89 -233 vlineto
          endchar
        </CharString>
        <CharString name="bracketleft.ss02">
          49 callsubr
          hvcurveto
          -348 vlineto
          endchar
        </CharString>
        <CharString name="bracketright">
          -178 -150 91 711 91 hstem
          142 129 vstem
          38 -150 rmoveto
          233 893 -233 -89 hlineto
          104 -4 rlineto
          -707 vlineto
          -104 -4 rlineto
          endchar
        </CharString>
        <CharString name="bracketright.ss02">
          -117 92 callgsubr
          0 352 vstem
          0 vmoveto
          352 348 hlineto
          126 callsubr
          vhcurveto
          endchar
        </CharString>
        <CharString name="breve">
          -209 601 79 hstem
          13 -12 callgsubr
          vstem
          293 -61 callgsubr
          endchar
        </CharString>
        <CharString name="brokenbar">
          134 callsubr
          390 rmoveto
          125 353 -125 hlineto
          -904 vmoveto
          125 353 -125 hlineto
          endchar
        </CharString>
        <CharString name="bullet">
          -177 233 221 hstem
          59 219 vstem
          278 342 rmoveto
          97 -4 15 -107 -104 -4 -15 -97 -94 4 -15 104 107 4 15 94 vhcurveto
          endchar
        </CharString>
        <CharString name="bullet.ss02">
          269 -8 60 155 60 -36 60 105 60 -35 60 155 60 hstemhm
          40 60 155 60 -36 60 105 60 -36 60 155 60 -20 callgsubr
          hintmask 0010111011000000
          392 421 rmoveto
          62 50 39 73 90 -76 73 -36 -37 -76 -73 -90 -73 50 -39 63 hvcurveto
          60 vmoveto
          -30 -23 18 34 57 36 46 17 17 35 -46 -57 -34 -23 -18 -29 hvcurveto
          -189 -250 rmoveto
          hintmask 0011001100000000
          73 39 50 63 62 -39 50 -73 -90 -73 -76 -36 hvcurveto
          hintmask 0010111011000000
          -37 73 -76 90 vhcurveto
          hintmask 0011001100110000
          378 hmoveto
          89 73 76 37 36 -73 76 -89 -74 -39 -50 -62 -63 39 -50 74 hvcurveto
          -378 60 rmoveto
          -57 -46 36 17 17 46 35 57 34 18 -23 -29 -30 -18 -23 -34 hvcurveto
          378 hmoveto
          -35 -18 23 30 29 18 23 35 56 46 -35 -17 -17 -46 -36 -56 hvcurveto
          hintmask 1100000011000000
          -189 -299 rmoveto
          36 76 73 90 73 -50 39 -62 -63 -50 -39 -73 -90 76 -73 37 hvcurveto
          60 vmoveto
          -17 -36 46 57 34 23 18 30 29 23 -18 -34 -57 -35 -46 -17 hvcurveto
          endchar
        </CharString>
        <CharString name="c">
          -116 -65 callgsubr
          131 callgsubr
          364 7 rmoveto
          104 vlineto
          -83 callsubr
          -174 15 -89 178 44 50 6 9 37 hvcurveto
          endchar
        </CharString>
        <CharString name="cacute">
          -116 -65 callgsubr
          80 145 131 callgsubr
          142 598 -102 callsubr
          222 -596 rmoveto
          104 vlineto
          -83 callsubr
          -174 15 -89 178 44 50 6 9 37 hvcurveto
          endchar
        </CharString>
        <CharString name="cacute.loclPLK">
          -116 -65 callgsubr
          80 145 131 callgsubr
          142 598 -67 callsubr
          222 -596 rmoveto
          104 vlineto
          -83 callsubr
          -174 15 -89 178 44 50 6 9 37 hvcurveto
          endchar
        </CharString>
        <CharString name="caron">
          -185 605 138 hstem
          12 305 vstem
          97 605 -99 callsubr
          endchar
        </CharString>
        <CharString name="caron.loclCSY">
          116 callsubr
          41 429 rmoveto
          97 hlineto
          45 67 callsubr
          endchar
        </CharString>
        <CharString name="ccaron">
          -116 -65 callgsubr
          87 138 131 callgsubr
          132 605 -99 callsubr
          317 -728 rmoveto
          104 vlineto
          -83 callsubr
          -174 15 -89 178 44 50 6 9 37 hvcurveto
          endchar
        </CharString>
        <CharString name="ccedilla">
          -116 -65 callgsubr
          131 callgsubr
          364 111 rmoveto
          -83 callsubr
          -143 10 -85 102 -26 hvcurveto
          -66 -185 rlineto
          -5 125 vlineto
          34 181 41 1 44 6 34 8 rlinecurve
          endchar
        </CharString>
        <CharString name="ccircumflex">
          -116 -65 callgsubr
          87 138 131 callgsubr
          48 605 -107 callgsubr
          316 -606 rmoveto
          104 vlineto
          -83 callsubr
          -174 15 -89 178 44 50 6 9 37 hvcurveto
          endchar
        </CharString>
        <CharString name="cdotaccent">
          -116 -65 callgsubr
          108 104 -3 callsubr
          -39 117 hintmask 11101000
          141 10 callgsubr
          223 -723 rmoveto
          104 vlineto
          hintmask 11110000
          -83 callsubr
          -174 15 -89 178 hvcurveto
          hintmask 11101000
          44 50 6 9 37 hvcurveto
          endchar
        </CharString>
        <CharString name="cedilla">
          -328 -189 197 hstem
          13 161 vstem
          13 82 callsubr
        </CharString>
        <CharString name="cent">
          -106 -8 192 -114 114 317 115 -115 195 hstemhm
          44 143 -4 102 hintmask 10010100
          183 -8 rmoveto
          102 hlineto
          hintmask 01010100
          78 vlineto
          32 2 30 5 21 6 rrcurveto
          hintmask 10011000
          108 vlineto
          -4 -29 -36 -3 -26 hhcurveto
          -78 -12 16 142 140 10 19 79 hvcurveto
          hintmask 10010100
          26 34 -3 -4 29 hvcurveto
          hintmask 10100100
          108 vlineto
          -23 7 -29 5 -28 2 rrcurveto
          hintmask 10010100
          80 -102 -83 vlineto
          hintmask 10011000
          -120 -19 -19 -89 -163 vvcurveto
          hintmask 10010100
          -157 14 -94 125 -20 vhcurveto
          endchar
        </CharString>
        <CharString name="circumflex">
          -185 605 138 hstem
          13 304 vstem
          13 605 -23 callgsubr
        </CharString>
        <CharString name="colon">
          -250 0 136 238 92 callsubr
          vstem
          57 374 rmoveto
          151 136 -151 hlineto
          -510 vmoveto
          119 callgsubr
        </CharString>
        <CharString name="comma">
          -250 -148 61 87 92 callsubr
          vstem
          51 -87 53 callgsubr
        </CharString>
        <CharString name="copyright">
          144 -8 54 108 69 239 70 110 54 hstem
          66 56 94 83 237 56 vstem
          329 -8 rmoveto
          142 callgsubr
          140 callgsubr
          hvcurveto
          54 49 callgsubr
          19 108 rmoveto
          26 34 4 5 19 hvcurveto
          64 vlineto
          -2 -15 -26 -2 -20 hhcurveto
          -64 -3 9 111 111 3 8 64 16 25 -1 -3 18 hvcurveto
          65 vlineto
          5 -16 -33 4 -28 hhcurveto
          -116 -16 -46 -143 -143 15 -46 117 hvcurveto
          endchar
        </CharString>
        <CharString name="currency">
          91 82 103 319 102 hstem
          92 139 141 120 vstem
          119 3 rmoveto
          79 79 rlineto
          27 -6 34 -3 43 43 35 2 27 hflex1
          80 -80 78 78 -73 73 rlineto
          17 42 3 61 0 89 0 88 -3 61 42 flex1
          73 72 -78 78 -80 -80 rlineto
          -27 7 -35 3 -43 -43 -34 -3 -27 hflex1
          -79 80 -79 -78 71 -71 rlineto
          -17 -42 -2 -61 -89 vvcurveto
          -90 2 -62 18 -41 vhcurveto
          -71 -72 rlineto
          261 105 rmoveto
          -70 -1 13 147 147 1 12 70 70 0 -12 -147 -147 0 -13 -70 hvcurveto
          endchar
        </CharString>
        <CharString name="d">
          -3 -8 60 callsubr
          59 -59 121 24 callsubr
          hintmask 00000000
          hintmask 10001110
          188 -8 rmoveto
          hintmask 00101110
          41 callgsubr
          hintmask 01010110
          6 callsubr
          hintmask 01001110
          -4 callgsubr
          hvcurveto
          hintmask 10001110
          94 callgsubr
          vhcurveto
          hintmask 01001110
          61 120 rmoveto
          -8 callsubr
          143 callsubr
        </CharString>
        <CharString name="dagger">
          -72 21 -21 428.5 99.5 160 -20 hstem
          170.5 100 vstem
          175 hmoveto
          91 hlineto
          9 424 116 9 rlineto
          90 vlineto
          87 callsubr
          114 -9 rlineto
          endchar
        </CharString>
        <CharString name="daggerdbl">
          -72 21 -21 159.5 99.5 169.5 99.5 160 -20 hstemhm
          166 109 -104.5 100 100 callsubr
          175 hmoveto
          91 hlineto
          9 155 116 9 rlineto
          90 vlineto
          hintmask 11111000
          -116 10 rlineto
          160 vlineto
          116 9 rlineto
          90 vlineto
          hintmask 11110100
          87 callsubr
          hintmask 11111000
          114 -9 rlineto
          -160 vlineto
          -114 -10 rlineto
          -90 vlineto
          hintmask 11110100
          114 -9 rlineto
          endchar
        </CharString>
        <CharString name="dcaron">
          -3 -8 120 -112 112 285 59 -59 121 -89 259 0 -20 24 callsubr
          46 127 -20 callgsubr
          hintmask 1001011110000000
          188 -8 rmoveto
          41 callgsubr
          hintmask 0110011110000000
          6 callsubr
          hintmask 0101011110000000
          -4 callgsubr
          hvcurveto
          hintmask 1001011110000000
          94 callgsubr
          vhcurveto
          hintmask 0100101110000000
          299 437 rmoveto
          97 hlineto
          45 67 callsubr
          -253 -520 rmoveto
          -63 -6 9 134 hvcurveto
          hintmask 0101011110000000
          133 6 9 63 36 17 -8 -33 8 vhcurveto
          -5 callgsubr
          hintmask 0100101110000000
          143 callsubr
        </CharString>
        <CharString name="dcroat">
          -3 -8 60 callsubr
          59 -59 121 61 109 24 callsubr
          hintmask 01001111
          507 688 rmoveto
          -51 55 -139 -55 -106 -109 106 hlineto
          hintmask 01010111
          -123 -7 vlineto
          hintmask 10001111
          -4 callgsubr
          94 callgsubr
          hvcurveto
          hintmask 00101111
          41 callgsubr
          hintmask 01001111
          4 -61 rlineto
          131 579 51 hlineto
          -198 -431 rmoveto
          90 callgsubr
          -8 callsubr
          endchar
        </CharString>
        <CharString name="degree">
          -159 397 66 166 67 hstem
          44 86 95 86 vstem
          178 397 rmoveto
          128 5 39 110 110 -5 40 -128 -128 -6 -40 -110 -110 6 -39 128 hvcurveto
          66 vmoveto
          -47 -1 12 71 71 1 12 47 47 0 -12 -71 -71 0 -12 -47 hvcurveto
          endchar
        </CharString>
        <CharString name="dialog">
          291 91 callgsubr
          59 60 567 60 vstem
          306 -212 rmoveto
          213 212 rlineto
          227 688 -687 -688 247 60 -187 568 567 -568 -192 hlineto
          -188 -187 rlineto
          endchar
        </CharString>
        <CharString name="dieresis">
          -183 626 104 hstem
          13 -25 callgsubr
          vstem
          13 626 -89 callgsubr
          endchar
        </CharString>
        <CharString name="divide">
          -10 29 97 72 110 72 96 hstem
          196 111 vstem
          196 380 rmoveto
          111 96 -111 hlineto
          -133 -278 rmoveto
          84 callgsubr
          133 -279 rmoveto
          111 97 -111 hlineto
          endchar
        </CharString>
        <CharString name="dollar">
          -46 -8 192 -114 114 320 113 -113 192 hstemhm
          46 137 3 102 -2 136 hintmask 10010100
          186 -8 rmoveto
          102 79 hlineto
          hintmask 10011010
          82 10 52 37 122 vvcurveto
          126 -41 22 -68 10 vhcurveto
          -91 12 rlineto
          -36 5 -3 3 40 vvcurveto
          40 17 6 65 33 53 -4 -5 44 vhcurveto
          hintmask 10100010
          107 vlineto
          hintmask 10100100
          -24 7 -46 6 -37 2 rrcurveto
          hintmask 10010100
          79 -102 -80 vlineto
          hintmask 10011010
          -85 -10 -55 -39 -109 vvcurveto
          -99 18 -49 97 -15 vhcurveto
          82 -12 rlineto
          38 -6 5 -2 -42 vvcurveto
          -40 -10 -9 -75 -55 -57 5 3 -29 vhcurveto
          hintmask 01011000
          -107 vlineto
          hintmask 01010100
          33 -7 51 -6 42 -2 rrcurveto
          endchar
        </CharString>
        <CharString name="dotaccent">
          -372 626 104 hstem
          13 117 vstem
          13 10 callgsubr
          endchar
        </CharString>
        <CharString name="dotbelowcomb">
          -35 callsubr
          hstem
          -207 151 vstem
          -207 -198 -90 callsubr
        </CharString>
        <CharString name="dotlessi">
          11 callgsubr
          85 callgsubr
          55 hmoveto
          -35 callgsubr
          endchar
        </CharString>
        <CharString name="e">
          -68 callsubr
          23 callgsubr
          445 254 -106 callsubr
          endchar
        </CharString>
        <CharString name="eacute">
          -68 callsubr
          80 145 23 callgsubr
          401 738 -52 callsubr
          148 -344 -106 callsubr
          endchar
        </CharString>
        <CharString name="ebreve">
          -68 callsubr
          83 79 145 callsubr
          -75 -12 callgsubr
          -69 130 163 callgsubr
          242 601 rmoveto
          -57 callgsubr
          hvcurveto
          -82 hlineto
          -38 -2 -25 -58 -57 0 25 38 vhcurveto
          -81 hlineto
          -83 15 -59 123 vhcurveto
          hintmask 11111001
          203 -347 -106 callsubr
          endchar
        </CharString>
        <CharString name="ecaron">
          -68 callsubr
          87 138 23 callgsubr
          310 605 rmoveto
          86 130 rlineto
          8 -93 vlineto
          -60 -76 -59 76 rlineto
          -93 -8 hlineto
          85 -130 rlineto
          269 -351 -106 callsubr
          endchar
        </CharString>
        <CharString name="ecircumflex">
          -68 callsubr
          87 138 23 callgsubr
          249 682 -54 callgsubr
          255 -351 -106 callsubr
          endchar
        </CharString>
        <CharString name="edieresis">
          -68 callsubr
          106 104 145 callsubr
          -81 77 callgsubr
          130 hintmask 11110110
          215 728 31 callgsubr
          188 104 31 callgsubr
          hintmask 11111001
          42 -370 -106 callsubr
          endchar
        </CharString>
        <CharString name="edotaccent">
          -68 callsubr
          108 104 145 callsubr
          6 117 13 130 hintmask 11110100
          302 730 31 callgsubr
          hintmask 11111010
          143 -372 -106 callsubr
          endchar
        </CharString>
        <CharString name="egrave">
          -68 callsubr
          80 145 23 callgsubr
          311 598 -44 callsubr
          239 -344 -106 callsubr
          endchar
        </CharString>
        <CharString name="eight">
          64 135 callsubr
          46 150 -144 148 178 148 -144 150 hintmask 11110010
          289 154 callsubr
          -38 33 -72 86 callsubr
          -176 -61 25 callsubr
          -75 -14 10 75 76 13 10 76 76 13 -10 -76 -75 -14 -10 -75 hvcurveto
          hintmask 11110010
          -293 vmoveto
          -74 -19 97 callsubr
        </CharString>
        <CharString name="eight.dnom">
          -177 -4 86 callgsubr
          -4 -46 callgsubr
        </CharString>
        <CharString name="eight.numr">
          -177 304 86 callgsubr
          304 -46 callgsubr
        </CharString>
        <CharString name="eight.tnum">
          49 135 callsubr
          39 150 -144 148 177 149 -144 150 hintmask 11110010
          282 154 callsubr
          -39 33 -71 86 callsubr
          -177 -60 25 callsubr
          -76 -13 10 75 76 13 10 76 76 12 -10 -76 -75 -14 -10 -74 hvcurveto
          hintmask 11110010
          -293 vmoveto
          -75 -18 97 callsubr
        </CharString>
        <CharString name="ellipsis">
          280 0 92 callsubr
          113 151 114 151 vstem
          57 hmoveto
          151 136 -151 hlineto
          264 -136 rmoveto
          151 136 -151 hlineto
          265 -136 -90 callsubr
        </CharString>
        <CharString name="emacron">
          -68 callsubr
          105 120 145 callsubr
          -53 234 -45 130 100 callsubr
          360 743 127 callsubr
          hintmask 11111010
          85 -369 -106 callsubr
          endchar
        </CharString>
        <CharString name="emdash">
          331 250 109 hstem
          44 756 vstem
          44 250 rmoveto
          756 109 -756 hlineto
          endchar
        </CharString>
        <CharString name="endash">
          -53 250 109 hstem
          44 373 vstem
          44 250 rmoveto
          373 109 -373 hlineto
          endchar
        </CharString>
        <CharString name="eng">
          50 callsubr
          hintmask 00000000
          hintmask 11001110
          328 518 rmoveto
          hintmask 11100110
          -18 callsubr
          hintmask 11010110
          -77 callgsubr
          -316 vlineto
          69 callgsubr
          -103 vlineto
          169 41 16 182 hvcurveto
          328 vlineto
          hintmask 11001110
          -3 callgsubr
          endchar
        </CharString>
        <CharString name="eogonek">
          -27 129 callsubr
          -62 callsubr
          145 callsubr
          63 169 -96 130 hintmask 01111010
          445 254 rmoveto
          85 callsubr
          -193 -193 -16 -82 -182 -186 14 -76 206 vhcurveto
          hintmask 11111100
          13 15 0 1 14 hvcurveto
          -36 -32 -24 -35 -41 vvcurveto
          -41 25 -40 86 21 26 2 2 11 vhcurveto
          150 callsubr
          -33 -9 17 16 39 46 38 31 18 hvcurveto
          -85 callgsubr
          hintmask 01111010
          266 hlineto
          -197 194 98 callgsubr
        </CharString>
        <CharString name="equal">
          -10 101 111 82 113 callgsubr
          63 294 rmoveto
          84 callgsubr
          -303 vmoveto
          378 111 -378 hlineto
          endchar
        </CharString>
        <CharString name="estimated">
          85 -8 34 297 34 305 34 hstemhm
          48 149 205 149 -48 36 hintmask 11111000
          197 323 rmoveto
          354 21 hlineto
          20 callsubr
          vhcurveto
          hintmask 11110100
          191 40 39 169 9 hvcurveto
          -36 hlineto
          -164 -10 -39 -10 -140 hhcurveto
          hintmask 11111000
          -111 -6 6 291 hvcurveto
          102 339 rmoveto
          97 6 -6 -299 hvcurveto
          -205 hlineto
          299 5 6 97 vhcurveto
          endchar
        </CharString>
        <CharString name="eth">
          -11 -8 -26 callsubr
          111 154 72 -53 -20 67 callgsubr
          hintmask 11011100
          157 callgsubr
          78 -6 66 -9 49 hvcurveto
          -14 70 -17 50 -23 43 57 9 rcurveline
          81 vlineto
          -104 -16 rlineto
          hintmask 11101100
          -15 20 -14 16 -16 17 rrcurveto
          -146 -4 hlineto
          20 -20 20 -23 20 -25 -60 -9 rcurveline
          -81 vlineto
          105 15 14 -26 11 -30 10 -32 rlinecurve
          -3 -4 rlineto
          8 -23 -26 5 -36 hhcurveto
          -151 -14 -85 -178 hvcurveto
          hintmask 11011100
          -201 13 -61 197 vhcurveto
          112 vmoveto
          -70 0 12 138 140 0 12 70 71 0 -20 -132 -138 0 -12 -71 hvcurveto
          endchar
        </CharString>
        <CharString name="exclam">
          -17 callsubr
        </CharString>
        <CharString name="exclam.case">
          -17 callsubr
        </CharString>
        <CharString name="exclam.ss02">
          280 -8 45 72 82 460 45 hstem
          45 45 273 68 273 45 vstem
          397 -8 rmoveto
          194 158 158 194 194 -158 158 -194 -194 -158 -158 -194 -194 158 -158 194 hvcurveto
          45 vmoveto
          -169 -138 138 169 169 138 138 169 169 138 -138 -169 -169 -138 -138 -169 hvcurveto
          -20 231 rmoveto
          40 hlineto
          5 34 9 89 89 vvcurveto
          99 -68 -99 vlineto
          -89 9 -89 5 -34 vhcurveto
          -14 -159 rmoveto
          68 82 -68 hlineto
          endchar
        </CharString>
        <CharString name="exclamdbl">
          0 0 136 552 -20 hstemhm
          65 166 -158 150 69 166 -158 150 hintmask 00000000
          hintmask 11101000
          99 223 rmoveto
          -15 callgsubr
          227 hmoveto
          -15 callgsubr
          hintmask 11010100
          -26 -223 40 callsubr
          -227 -136 40 callsubr
          endchar
        </CharString>
        <CharString name="exclamdown">
          -236 374 136 hstemhm
          56 165 -158 151 hintmask 10100000
          63 374 rmoveto
          151 136 -151 hlineto
          hintmask 11000000
          -7 -688 rmoveto
          165 50 hlineto
          61 -23 269 -10 85 vhcurveto
          -98 hlineto
          -11 -85 -23 -269 -61 vvcurveto
          endchar
        </CharString>
        <CharString name="exclamdown.case">
          -228 21 -21 552 136 hstemhm
          56 166 -158 150 hintmask 11010000
          64 552 40 callsubr
          hintmask 11100000
          -8 -688 rmoveto
          166 50 hlineto
          61 -23 269 -11 85 vhcurveto
          -98 hlineto
          -10 -85 -24 -269 -61 vvcurveto
          endchar
        </CharString>
        <CharString name="f">
          -155 65 callsubr
          vstem
          96 hmoveto
          128 callsubr
          60 hlineto
          -42 callsubr
          endchar
        </CharString>
        <CharString name="f_f">
          204 65 callsubr
          220 139 vstem
          96 hmoveto
          128 callsubr
          60 hlineto
          -42 callsubr
          359 -398 rmoveto
          128 callsubr
          60 hlineto
          -42 callsubr
          endchar
        </CharString>
        <CharString name="fi">
          95 61 callsubr
          110 123 -101 100 hstemhm
          96 139 179 140 hintmask 11101100
          413 0 callsubr
          -317 -743 rmoveto
          128 callsubr
          hlineto
          hintmask 11011100
          60 vlineto
          -42 callsubr
          318 -398 -45 callgsubr
          endchar
        </CharString>
        <CharString name="five">
          19 141 callsubr
          64 134 143 150 vstem
          58 -19 callgsubr
        </CharString>
        <CharString name="five.dnom">
          -197 -4 142 callsubr
          73 -49 callgsubr
          endchar
        </CharString>
        <CharString name="five.numr">
          -197 304 142 callsubr
          381 -49 callgsubr
          endchar
        </CharString>
        <CharString name="five.tnum">
          49 141 callsubr
          80 134 143 150 vstem
          74 -19 callgsubr
        </CharString>
        <CharString name="fiveeighths">
          280 112 callsubr
          80 72 -61 69 93 71 67 72 hstemhm
          45 80 74 90 194 90 -87 89 99 88 -86 90 -20 callgsubr
          hintmask 0111011111001000
          145 hmoveto
          89 25 callgsubr
          -499 -307 -49 callgsubr
          hintmask 1010111111001000
          583 -385 -1 callsubr
          hintmask 1010111110110000
          -36 callsubr
          hintmask 1010111111001000
          9 callsubr
          hintmask 1010111110110000
          -31 callgsubr
          hintmask 1010111111001000
          -32 callsubr
        </CharString>
        <CharString name="fl">
          95 65 callsubr
          179 140 vstem
          414 41 callsubr
          -318 -743 rmoveto
          128 callsubr
          60 hlineto
          -42 callsubr
          endchar
        </CharString>
        <CharString name="florin">
          -67 -195 101 492 112 131 101 hstem
          -99 543 vstem
          422 641 rmoveto
          22 101 rlineto
          -215 -31 -13 -218 -46 hvcurveto
          -1 -78 vlineto
          -23 -112 rlineto
          78 hlineto
          -91 -424 rlineto
          -62 -13 -12 -6 -90 hhcurveto
          -22 -101 rlineto
          210 32 12 182 40 hvcurveto
          85 399 rlineto
          103 hlineto
          23 112 rlineto
          -103 hlineto
          124 26 -2 7 107 hhcurveto
          endchar
        </CharString>
        <CharString name="four">
          39 161 callsubr
          309 148 vstem
          309 149 callsubr
          -106 hlineto
          -40 -175 rlineto
          -130 hlineto
          192 426 rlineto
          -158 hlineto
          -187 -440 rlineto
          -110 281 vlineto
          endchar
        </CharString>
        <CharString name="four.dnom">
          -195 0 146 -71 71 hstemhm
          178 88 hintmask 10100000
          178 hmoveto
          88 hlineto
          hintmask 01100000
          75 41 vlineto
          hintmask 10100000
          71 -41 92 -62 vlineto
          146 callsubr
          hintmask 01100000
          162 callsubr
        </CharString>
        <CharString name="four.numr">
          -195 383 71 hstem
          178 88 vstem
          178 308 rmoveto
          88 75 41 71 -41 92 -62 hlineto
          146 callsubr
          162 callsubr
        </CharString>
        <CharString name="four.ss01">
          44 21 -21 138 125 299 126 hstem
          310 148 vstem
          310 hmoveto
          148 138 73 125 -73 425 -220 hlineto
          -210 -441 rlineto
          -109 282 vlineto
          -147 125 rmoveto
          141 299 rlineto
          6 -299 hlineto
          endchar
        </CharString>
        <CharString name="four.tnum">
          49 161 callsubr
          312 148 vstem
          312 149 callsubr
          -105 hlineto
          -41 -175 rlineto
          -131 hlineto
          193 426 rlineto
          -158 hlineto
          -188 -440 rlineto
          -110 282 vlineto
          endchar
        </CharString>
        <CharString name="fraction">
          -374 144 callsubr
          -172 484 vstem
          -172 hmoveto
          89 25 callgsubr
          endchar
        </CharString>
        <CharString name="g">
          -52 callgsubr
          24 callsubr
          hintmask 11010110
          235 -205 rmoveto
          -28 callsubr
          hintmask 11100110
          -4 -61 rlineto
          -8 hlineto
          hintmask 11001110
          -88 callgsubr
          hintmask 11010110
          62 callsubr
          -88 callsubr
        </CharString>
        <CharString name="g_tilde.loclGUA">
          -52 callgsubr
          80 60 callgsubr
          -98 76 159 139 -102 129 callgsubr
          hintmask 1101001100100000
          429 -43 callgsubr
          hintmask 1101010011000000
          -101 callsubr
          hintmask 1101001100100000
          -92 callsubr
          hintmask 1101010101000000
          -194 -948 rmoveto
          -28 callsubr
          hintmask 1110010101000000
          -4 -61 rlineto
          -8 hlineto
          hintmask 1100110101000000
          -88 callgsubr
          hintmask 1101010101000000
          62 callsubr
          -88 callsubr
        </CharString>
        <CharString name="gbreve">
          -52 callgsubr
          83 79 -3 callsubr
          -64 -12 callgsubr
          -79 47 callgsubr
          hintmask 1101010110000000
          396 -61 callgsubr
          -161 -948 rmoveto
          hintmask 1101011001000000
          -28 callsubr
          hintmask 1110011001000000
          -4 -61 rlineto
          -8 hlineto
          hintmask 1100111001000000
          -88 callgsubr
          hintmask 1101010110000000
          62 callsubr
          hintmask 1101011001000000
          -88 callsubr
        </CharString>
        <CharString name="gcaron">
          -52 callgsubr
          87 138 24 callsubr
          hintmask 11010111
          188 605 -99 callsubr
          132 -940 rmoveto
          -28 callsubr
          hintmask 11100111
          -4 -61 rlineto
          -8 hlineto
          hintmask 11001111
          -88 callgsubr
          hintmask 11010111
          62 callsubr
          -88 callsubr
        </CharString>
        <CharString name="gcircumflex">
          -52 callgsubr
          87 138 24 callsubr
          hintmask 11010111
          104 605 -107 callgsubr
          131 -818 rmoveto
          -28 callsubr
          hintmask 11100111
          -4 -61 rlineto
          -8 hlineto
          hintmask 11001111
          -88 callgsubr
          hintmask 11010111
          62 callsubr
          -88 callsubr
        </CharString>
        <CharString name="gcommaaccent">
          -52 callgsubr
          80 114 57 57 -3 callsubr
          5 142 -10 47 callgsubr
          hintmask 1101011010000000
          333 52 callsubr
          -98 -974 rmoveto
          hintmask 1101011101000000
          -28 callsubr
          hintmask 1110011101000000
          -4 -61 rlineto
          -8 hlineto
          hintmask 1100111101000000
          -88 callgsubr
          hintmask 1101011010000000
          62 callsubr
          hintmask 1101011101000000
          -88 callsubr
        </CharString>
        <CharString name="gdotaccent">
          -52 callgsubr
          108 104 -3 callsubr
          17 117 3 47 callgsubr
          hintmask 1101011100000000
          197 10 callgsubr
          38 -935 rmoveto
          hintmask 1101011010000000
          -28 callsubr
          hintmask 1110011010000000
          -4 -61 rlineto
          -8 hlineto
          hintmask 1100111010000000
          -88 callgsubr
          hintmask 1101011100000000
          62 callsubr
          hintmask 1101011010000000
          -88 callsubr
        </CharString>
        <CharString name="germandbls">
          12 0 112 265 112 149 112 165 callsubr
          62 118 -37 141 -133 140 hintmask 11110010
          284 hmoveto
          171 30 73 168 131 -37 48 -74 15 hvcurveto
          4 vlineto
          hintmask 11110100
          72 14 32 42 85 vvcurveto
          111 -47 59 -164 -162 -50 -64 -137 vhcurveto
          -549 139 539 vlineto
          90 19 9 53 55 16 -10 -67 -59 -10 -13 -58 vhcurveto
          hintmask 11111000
          -13 -112 hlineto
          hintmask 11110010
          13 hlineto
          62 14 -10 -118 -133 -8 -4 -68 hvcurveto
          -20 -112 hlineto
          endchar
        </CharString>
        <CharString name="grave">
          125 callsubr
          208 vstem
          116 598 -89 callsubr
          endchar
        </CharString>
        <CharString name="gravecomb">
          598 88 callgsubr
          -118 598 -89 callsubr
          endchar
        </CharString>
        <CharString name="gravecomb.case">
          743 88 callgsubr
          -118 743 -89 callsubr
          endchar
        </CharString>
        <CharString name="greater">
          -9 56 394 hstem
          63 378 vstem
          63 56 rmoveto
          378 141 rlineto
          112 vlineto
          -378 141 rlineto
          -112 vlineto
          248 -85 -248 -86 rlineto
          endchar
        </CharString>
        <CharString name="greaterequal">
          -6 16 110 hstem
          65 379 vstem
          65 181 rmoveto
          379 -43 callsubr
          113 vlineto
          -379 141 rlineto
          -112 vlineto
          249 -85 -249 -86 rlineto
          -276 vmoveto
          379 110 -379 hlineto
          endchar
        </CharString>
        <CharString name="guillemotleft">
          -59 510 -20 hstem
          31 377 vstem
          138 111 104 callsubr
          282 -199 104 callsubr
          endchar
        </CharString>
        <CharString name="guillemotright">
          -59 510 -20 hstem
          47 377 vstem
          47 111 rmoveto
          95 hlineto
          107 199 -107 112 callgsubr
          89 -199 rmoveto
          95 hlineto
          107 199 -107 112 callgsubr
          endchar
        </CharString>
        <CharString name="guilsinglleft">
          -234 510 -20 hstem
          30 202 vstem
          138 111 rmoveto
          94 hlineto
          -85 199 85 200 rlineto
          -94 hlineto
          -108 -200 rlineto
          endchar
        </CharString>
        <CharString name="guilsinglright">
          -234 510 -20 hstem
          47 203 vstem
          47 111 rmoveto
          95 hlineto
          108 199 -108 112 callgsubr
          endchar
        </CharString>
        <CharString name="h">
          111 callsubr
          1 callgsubr
          hintmask 10111000
          324 hmoveto
          72 callsubr
          hintmask 11011000
          21 callgsubr
          hintmask 10111000
          124 callsubr
        </CharString>
        <CharString name="hbar">
          111 callsubr
          61 109 1 callgsubr
          hintmask 10111100
          328 518 rmoveto
          hintmask 11011100
          -57 -46 -17 -50 -23 hvcurveto
          -8 128 106 109 -106 55 -139 -55 -51 -109 51 -579 139 262 hlineto
          hintmask 10111100
          109 6 26 61 57 6 -6 -118 vhcurveto
          -273 139 329 vlineto
          126 -18 63 -117 vhcurveto
          endchar
        </CharString>
        <CharString name="hcircumflex">
          111 callsubr
          265 138 1 callgsubr
          hintmask 10111100
          -27 783 -107 callgsubr
          351 -791 rmoveto
          72 callsubr
          hintmask 11011100
          21 callgsubr
          hintmask 10111100
          124 callsubr
        </CharString>
        <CharString name="hookabovecomb">
          745 78 hstemhm
          -216 101 callgsubr
          hintmask 11100000
          -216 17 callsubr
          hintmask 10100000
          -97 callgsubr
          -21 callsubr
          hvcurveto
          hintmask 11100000
          -65 callsubr
          endchar
        </CharString>
        <CharString name="hookabovecomb.case">
          862 79 hstemhm
          -216 101 callgsubr
          hintmask 11100000
          -216 7 callgsubr
          hintmask 10100000
          -90 callgsubr
          -17 -7 -4 -32 -11 hvcurveto
          hintmask 11100000
          -27 callgsubr
          endchar
        </CharString>
        <CharString name="house">
          133 0 95 hstem
          37 114.5 344 114.5 vstem
          37 hmoveto
          573 394 hlineto
          -231 304 rlineto
          -111 hlineto
          -231 -304 rlineto
          115 -299 rmoveto
          -1 277 173 222 172 -222 -1 -277 rlineto
          endchar
        </CharString>
        <CharString name="hungarumlaut">
          -146 610 122 hstem
          13 342 vstem
          13 610 -76 callgsubr
          endchar
        </CharString>
        <CharString name="hyphen">
          58 callgsubr
        </CharString>
        <CharString name="i">
          -264 21 137 callsubr
          vstem
          54 0 callsubr
          1 -743 -45 callgsubr
          endchar
        </CharString>
        <CharString name="i.loclTRK">
          11 callgsubr
          136 104 hstemhm
          55 140 -129 117 hintmask 00000000
          hintmask 11101000
          66 10 callgsubr
          hintmask 11110000
          -11 -730 -45 callgsubr
          endchar
        </CharString>
        <CharString name="iacute">
          -264 59 callsubr
          55 140 vstem
          57 598 -102 callsubr
          -2 -603 -45 callgsubr
          endchar
        </CharString>
        <CharString name="iacute_j.loclNLD">
          -15 -198 103 116 73 callsubr
          55 140 110 140 vstem
          67 598 -102 callsubr
          250 -5 -102 callsubr
          -262 -603 -45 callgsubr
          179 -708 -70 callgsubr
        </CharString>
        <CharString name="ibreve">
          11 callgsubr
          111 79 hstemhm
          -15 81 -11 140 -12 82 100 callsubr
          265 -61 callgsubr
          hintmask 11101000
          -210 -743 -45 callgsubr
          endchar
        </CharString>
        <CharString name="icircumflex">
          11 callgsubr
          115 138 85 callgsubr
          -27 605 -107 callgsubr
          82 -613 -45 callgsubr
          endchar
        </CharString>
        <CharString name="idieresis">
          11 callgsubr
          134 104 hstemhm
          -27 117 -35 140 -34 117 100 callsubr
          -27 624 -89 callgsubr
          hintmask 11101000
          -106 -728 -45 callgsubr
          endchar
        </CharString>
        <CharString name="igrave">
          -264 59 callsubr
          55 140 vstem
          89 598 -89 callsubr
          69 -738 -45 callgsubr
          endchar
        </CharString>
        <CharString name="ij">
          63 callsubr
          54 0 callsubr
          250 -123 rmoveto
          142 123 -142 hlineto
          -249 -743 -45 callgsubr
          179 -708 -70 callgsubr
        </CharString>
        <CharString name="imacron">
          11 callgsubr
          133 120 hstemhm
          7 234 -186 140 hintmask 00000000
          hintmask 11110000
          7 623 -45 callsubr
          hintmask 11101000
          48 -743 -45 callgsubr
          endchar
        </CharString>
        <CharString name="infinity">
          387 38 100 236 100 hstem
          49 111 580 111 vstem
          251 38 rmoveto
          113 53 52 67 34 hvcurveto
          -67 33 54 -52 113 hhcurveto
          160 40 79 139 138 -40 80 -160 -113 -54 -53 -65 -33 hvcurveto
          65 -34 -53 53 -113 hhcurveto
          -160 -42 -80 -138 -139 42 -79 160 hvcurveto
          8 100 rmoveto
          -82 -17 39 79 78 17 40 82 83 34 -53 -65 18 hvcurveto
          -64 -18 -34 -54 -83 hhcurveto
          384 hmoveto
          -84 -34 54 64 -17 hvcurveto
          65 17 34 53 84 hhcurveto
          81 16 -40 -78 -79 -16 -39 -81 hvcurveto
          endchar
        </CharString>
        <CharString name="integral">
          -144 -190 102 683 101 hstemhm
          92 143 -107 142 hintmask 11010000
          31 -190 rmoveto
          175 64 5 147 10 0 16 -2 38 hvcurveto
          hintmask 11100000
          -31 473 rlineto
          -1 14 -1 17 11 vvcurveto
          50 16 4 81 vhcurveto
          101 vlineto
          -177 -63 -5 -143 -13 1 -19 1 -14 hvcurveto
          hintmask 11010000
          31 -475 rlineto
          2 -42 1 -18 -8 vvcurveto
          -43 -19 -4 -78 vhcurveto
          endchar
        </CharString>
        <CharString name="iogonek">
          -264 -196 76 141 106 callsubr
          136 104 hstemhm
          26 112 -83 140 -129 117 hintmask 00000000
          hintmask 01110010
          183 730 31 callgsubr
          hintmask 11110100
          -4 -746 rmoveto
          -32 -9 16 18 34 32 36 25 16 hvcurveto
          510 -140 -510 vlineto
          hintmask 11111000
          31 hlineto
          -35 -32 -25 -40 -42 vvcurveto
          -42 25 -40 87 vhcurveto
          hintmask 11110100
          16 21 1 3 20 hvcurveto
          73 vlineto
          -5 -6 -1 -5 hhcurveto
          endchar
        </CharString>
        <CharString name="itilde">
          -264 21 -21 510 99 callgsubr
          -49 76 28 140 28 75 hintmask 00000000
          hintmask 11010110
          298 743 -6 callgsubr
          -243 -743 -45 callgsubr
          endchar
        </CharString>
        <CharString name="j">
          -264 -198 103 605 -20 130 123 85 callgsubr
          54 0 callsubr
          -70 -941 -70 callgsubr
        </CharString>
        <CharString name="jcircumflex">
          -264 -198 103 605 -20 115 138 85 callgsubr
          -27 605 -107 callgsubr
          11 -811 -70 callgsubr
        </CharString>
        <CharString name="k">
          -20 21 -21 198 112 200 -20 hstem
          55 139 vstem
          5 callsubr
          433 -139 -743 139 198 31 hlineto
          endchar
        </CharString>
        <CharString name="kcommaaccent">
          -20 -17 callgsubr
          82 -21 198 112 200 -20 165 callsubr
          -15 142 hintmask 11111100
          5 callsubr
          433 -139 -743 139 198 31 hlineto
          hintmask 11111010
          -52 -430 -84 callgsubr
        </CharString>
        <CharString name="kgreenlandic">
          -20 21 -21 198 112 200 -20 hstem
          55 139 vstem
          5 callsubr
          200 -139 -510 139 198 31 hlineto
          endchar
        </CharString>
        <CharString name="l">
          -264 21 -21 hstem
          55 140 155 callsubr
          endchar
        </CharString>
        <CharString name="lacute">
          -264 21 -21 776 145 85 callgsubr
          67 776 -102 callsubr
          -12 -781 rmoveto
          68 callsubr
          endchar
        </CharString>
        <CharString name="lcaron">
          -264 21 -21 429 259 0 -20 hstemhm
          55 140 45 128 hintmask 10110000
          55 41 callsubr
          hintmask 11011000
          170 -314 rmoveto
          98 hlineto
          45 203 rlineto
          56 -128 -56 vlineto
          endchar
        </CharString>
        <CharString name="lcommaaccent">
          -264 -17 callgsubr
          82 -21 hstemhm
          55 140 -84 88 hintmask 11110000
          55 41 callsubr
          hintmask 11101000
          -4 -975 rmoveto
          -57 vlineto
          hintmask 11110000
          133 15 31 121 hvcurveto
          76 -142 -114 vlineto
          hintmask 11101000
          54 -14 hlineto
          -34 -11 -9 -49 vhcurveto
          endchar
        </CharString>
        <CharString name="ldot">
          -175 21 -21 231 136 hstem
          55 140 32 138 155 callsubr
          172 -512 rmoveto
          138 136 -138 hlineto
          endchar
        </CharString>
        <CharString name="leftOpenDialog">
          105 91 callgsubr
          0 60 vstem
          626 628 rmoveto
          60 -566 vlineto
          -60 -688 59 hlineto
          567 60 -566 568 hlineto
          endchar
        </CharString>
        <CharString name="less">
          -9 56 394 hstem
          63 379 vstem
          442 56 rmoveto
          111 vlineto
          -249 86 249 85 rlineto
          112 vlineto
          -379 -141 rlineto
          -112 vlineto
          endchar
        </CharString>
        <CharString name="lessequal">
          -9 16 113 callgsubr
          441 181 rmoveto
          111 vlineto
          -248 86 248 85 rlineto
          112 vlineto
          -378 -141 rlineto
          -113 vlineto
          -305 vmoveto
          84 callgsubr
          endchar
        </CharString>
        <CharString name="logicalnot">
          -10 195 110 hstem
          331 110 vstem
          331 60 rmoveto
          110 245 -378 -110 268 hlineto
          endchar
        </CharString>
        <CharString name="longs">
          -171 65 callsubr
          vstem
          96 hmoveto
          139 570 hlineto
          -42 callsubr
          endchar
        </CharString>
        <CharString name="lozenge">
          -20 0 99 -78 -21 589 99 0 -20 hstemhm
          31 431 hintmask 01011000
          188 hmoveto
          118 hlineto
          156 344 -156 344 rlineto
          -118 hlineto
          -157 -344 rlineto
          hintmask 10101000
          216 -245 rmoveto
          -106 245 106 245 105 -245 rlineto
          endchar
        </CharString>
        <CharString name="lslash">
          -252 21 -21 hstem
          60 140 vstem
          60 hmoveto
          140 338 hlineto
          47 17 rlineto
          111 vlineto
          -47 -17 rlineto
          294 -140 -343 vlineto
          -46 -16 rlineto
          -111 vlineto
          46 16 rlineto
          endchar
        </CharString>
        <CharString name="m">
          249 21 -41 callsubr
          165 callsubr
          118 139 119 139 hintmask 10011110
          570 hmoveto
          139 331 hlineto
          125 -21 62 -109 vhcurveto
          hintmask 11001110
          -60 -45 -19 -51 -24 hvcurveto
          -8 hlineto
          hintmask 10011110
          48 -14 -34 22 -70 hhcurveto
          hintmask 11001110
          -59 -43 -19 -51 -24 hvcurveto
          -8 hlineto
          hintmask 10101110
          -4 62 rlineto
          -131 -510 139 262 hlineto
          hintmask 10011110
          110 5 25 56 52 5 -6 -118 vhcurveto
          -273 139 262 vlineto
          111 5 24 57 51 6 -6 -118 vhcurveto
          endchar
        </CharString>
        <CharString name="macron">
          58 callsubr
        </CharString>
        <CharString name="minus">
          -10 198 113 callgsubr
          63 198 rmoveto
          84 callgsubr
          endchar
        </CharString>
        <CharString name="minute">
          -275 1 callsubr
          hstem
          53.5 134 vstem
          105 callgsubr
          endchar
        </CharString>
        <CharString name="multiply">
          -38 76 353 hstem
          61 353 vstem
          237 175 rmoveto
          99 -99 78 78 -98 99 98 99 -77 77 -99 -98 -99 98 -78 -78 99 -98 -98 -99 77 -78 rlineto
          endchar
        </CharString>
        <CharString name="n">
          3 21 81 callsubr
          hintmask 10101100
          324 hmoveto
          139 328 hlineto
          hintmask 10011100
          -3 callgsubr
          hintmask 11001100
          -18 callsubr
          hintmask 10101100
          -77 callgsubr
          endchar
        </CharString>
        <CharString name="nacute">
          3 21 -41 callsubr
          80 145 1 callgsubr
          hintmask 10101110
          201 598 -102 callsubr
          123 -603 -47 callsubr
        </CharString>
        <CharString name="nacute.loclPLK">
          3 21 -41 callsubr
          80 145 1 callgsubr
          hintmask 10101110
          201 598 -67 callsubr
          123 -603 -47 callsubr
        </CharString>
        <CharString name="napostrophe">
          119 21 -41 callsubr
          -16 57 83 101 hstemhm
          21 143 7 139 130 47 callgsubr
          hintmask 1000111010000000
          51 callgsubr
          424 -559 rmoveto
          139 328 hlineto
          hintmask 1001010110000000
          -3 callgsubr
          hintmask 1100010110000000
          -18 callsubr
          hintmask 1010010110000000
          -77 callgsubr
          endchar
        </CharString>
        <CharString name="ncaron">
          3 21 -41 callsubr
          87 138 1 callgsubr
          hintmask 10101110
          191 605 -99 callsubr
          218 -735 -47 callsubr
        </CharString>
        <CharString name="ncommaaccent">
          3 -17 callgsubr
          82 -41 callsubr
          165 callsubr
          -4 142 -8 139 hintmask 1110101010000000
          324 hmoveto
          139 328 hlineto
          hintmask 1110011010000000
          -3 callgsubr
          hintmask 1111001010000000
          -18 callsubr
          hintmask 1110101010000000
          -77 callgsubr
          hintmask 1110100100000000
          -140 -505 -84 callgsubr
        </CharString>
        <CharString name="nine">
          48 140 callsubr
          43 144 179 149 vstem
          259 -8 rmoveto
          124 67 27 81 34 hvcurveto
          23 53 8 80 113 vvcurveto
          108 -5 75 -16 53 vhcurveto
          98 -28 -64 16 -131 120 callsubr
          85 34 28 20 14 hvcurveto
          6 hlineto
          -162 -12 -25 -123 -36 -64 5 7 -57 19 callsubr
        </CharString>
        <CharString name="nine.dnom">
          -187 -4 121 callsubr
          -4 -37 callgsubr
        </CharString>
        <CharString name="nine.numr">
          -187 304 121 callsubr
          304 -37 callgsubr
        </CharString>
        <CharString name="nine.ss01">
          39 21 -21 257 121 195 123 hstem
          35 145 189 150 vstem
          113 hmoveto
          169 hlineto
          67 51 170 185 214 vvcurveto
          156 -36 90 -206 -205 -37 -85 -136 -125 21 -93 157 47 33 5 14 28 vhcurveto
          4 -4 -55 -123 -106 -101 -51 -42 rlinecurve
          163 372 rmoveto
          -75 -21 4 93 87 18 11 78 70 23 -4 -101 -76 -19 -14 -74 hvcurveto
          endchar
        </CharString>
        <CharString name="nine.tnum">
          49 140 callsubr
          42 144 179 149 vstem
          258 -8 rmoveto
          122 66 26 71 33 hvcurveto
          27 58 8 81 118 vvcurveto
          133 -8 82 -24 50 vhcurveto
          73 -34 -63 12 -115 120 callsubr
          82 35 25 23 16 hvcurveto
          6 hlineto
          -162 -12 -25 -124 -35 -65 5 7 -56 19 callsubr
        </CharString>
        <CharString name="notequal">
          -10 102 110 82 113 callgsubr
          223 102 rmoveto
          218 110 -167 hlineto
          39 82 rlineto
          128 110 -77 hlineto
          44 93 rlineto
          -93 hlineto
          -43 -93 rlineto
          -209 -110 157 hlineto
          -39 -82 rlineto
          -118 -110 67 hlineto
          -41 -89 rlineto
          93 hlineto
          endchar
        </CharString>
        <CharString name="ntilde">
          3 21 -41 callsubr
          80 -75 callsubr
          55 139 -106 76 160 139 -103 129 callgsubr
          hintmask 1010011001000000
          435 -43 callgsubr
          hintmask 1010100110000000
          -101 callsubr
          hintmask 1010011001000000
          -92 callsubr
          hintmask 1001101010000000
          -111 -743 rmoveto
          139 328 hlineto
          -3 callgsubr
          hintmask 1100101010000000
          -18 callsubr
          hintmask 1010101010000000
          -77 callgsubr
          endchar
        </CharString>
        <CharString name="numbersign">
          136 21 -21 179 93 142 93 181 -20 hstem
          49 527 vstem
          307 hmoveto
          96 hlineto
          32 179 rlineto
          112 93 -95 hlineto
          25 142 rlineto
          99 93 -82 hlineto
          33 181 rlineto
          -97 hlineto
          -33 -181 rlineto
          -115 hlineto
          33 181 rlineto
          -96 hlineto
          -33 -181 rlineto
          -108 -93 91 hlineto
          -26 -142 rlineto
          -94 -93 78 hlineto
          -32 -179 rlineto
          97 hlineto
          32 179 rlineto
          115 hlineto
          42 235 rmoveto
          -26 -142 rlineto
          -115 hlineto
          26 142 rlineto
          endchar
        </CharString>
        <CharString name="o">
          -53 callgsubr
          hstem
          -31 callsubr
          vstem
          250 -8 -104 callsubr
        </CharString>
        <CharString name="oacute">
          14 callsubr
          191 598 -102 callsubr
          59 -611 -104 callsubr
        </CharString>
        <CharString name="oacute.loclPLK">
          14 callsubr
          193 598 -67 callsubr
          57 -611 -104 callsubr
        </CharString>
        <CharString name="obreve">
          -53 callgsubr
          83 79 -3 callsubr
          -70 -12 callgsubr
          -69 164 callgsubr
          hintmask 11101100
          390 -61 callgsubr
          hintmask 11110010
          -140 -751 -104 callsubr
        </CharString>
        <CharString name="ocircumflex">
          -53 callgsubr
          87 138 hstem
          -31 callsubr
          vstem
          99 605 -107 callgsubr
          151 -621 -104 callsubr
        </CharString>
        <CharString name="odieresis">
          -53 callgsubr
          106 104 -3 callsubr
          -81 -25 callgsubr
          -83 164 callgsubr
          hintmask 11101100
          99 624 -89 callgsubr
          hintmask 11110010
          -37 -736 -104 callsubr
        </CharString>
        <CharString name="oe">
          256 -8 -15 callsubr
          106 112 -109 109 hstemhm
          116 callgsubr
          140 136 130 hintmask 11101110
          727 254 rmoveto
          85 callsubr
          -190 -64 -46 -12 -25 -31 vhcurveto
          26 -30 -46 11 -68 hhcurveto
          -196 -13 -55 -208 70 callgsubr
          196 68 46 11 26 30 hvcurveto
          -26 34 47 -11 71 hhcurveto
          58 70 6 10 39 hvcurveto
          103 vlineto
          -4 -43 -60 -3 -34 hhcurveto
          -109 -5 11 100 hvcurveto
          266 hlineto
          hintmask 11011110
          -197 194 rmoveto
          54 13 -10 -99 hvcurveto
          -136 hlineto
          95 1 8 14 60 hhcurveto
          -280 -305 rmoveto
          -70 0 12 139 hvcurveto
          hintmask 11101110
          -86 callsubr
          vhcurveto
          hintmask 11011110
          -139 -1 -12 -70 vhcurveto
          endchar
        </CharString>
        <CharString name="ogonek">
          -346 -196 76 hstem
          -1 169 vstem
          168 -192 rmoveto
          7 callsubr
        </CharString>
        <CharString name="ograve">
          14 callsubr
          205 598 -89 callsubr
          148 -746 -104 callsubr
        </CharString>
        <CharString name="ohorn">
          -53 callgsubr
          -62 146 -92 -20 67 callgsubr
          -26 90 hintmask 00000000
          hintmask 10101010
          434 602 rmoveto
          hintmask 10011010
          -59 callgsubr
          -20 hlineto
          hintmask 11001100
          -56 callgsubr
          hintmask 10101100
          90 callsubr
          hintmask 10101010
          39 callgsubr
          hintmask 11001100
          -274 -498 rmoveto
          -66 callgsubr
        </CharString>
        <CharString name="ohungarumlaut">
          -53 callgsubr
          92 122 hstem
          -31 callsubr
          vstem
          128 610 -76 callgsubr
          -45 -622 -104 callsubr
        </CharString>
        <CharString name="omacron">
          -53 callgsubr
          105 120 -3 callsubr
          -47 234 -46 164 callgsubr
          hintmask 11101000
          133 623 -45 callsubr
          hintmask 11110100
          117 -751 -104 callsubr
        </CharString>
        <CharString name="one">
          -165 144 callsubr
          133 150 vstem
          133 hmoveto
          150 688 -107 hlineto
          -158 -82 rlineto
          -128 vlineto
          115 48 rlineto
          endchar
        </CharString>
        <CharString name="one.dnom">
          -304 21 -21 hstem
          77 90 vstem
          77 hmoveto
          111 callgsubr
        </CharString>
        <CharString name="one.numr">
          -304 308 379 hstem
          77 90 vstem
          77 308 rmoveto
          111 callgsubr
        </CharString>
        <CharString name="one.tnum">
          49 0 124 564 -20 hstem
          229 150 vstem
          84 hmoveto
          429 124 -134 564 -107 hlineto
          -184 -87 rlineto
          -126 vlineto
          141 52 rlineto
          -403 -145 vlineto
          endchar
        </CharString>
        <CharString name="oneeighth">
          229 112 callsubr
          91 69 304 -20 hstemhm
          98 93 223 89 101 89 -86 89 hintmask 1011110000000000
          3 callgsubr
          hintmask 0111110000000000
          -20 -584 rmoveto
          90 25 callgsubr
          hintmask 1011111010000000
          81 -692 rmoveto
          111 30 33 72 63 -22 19 -42 10 hvcurveto
          2 vlineto
          hintmask 1011111100000000
          41 9 20 26 55 vvcurveto
          72 -37 27 -101 -102 -37 -27 -72 -55 21 -26 40 -9 vhcurveto
          -2 vlineto
          -41 -10 -22 -19 -63 vvcurveto
          hintmask 1011111010000000
          -72 30 -33 111 vhcurveto
          hintmask 1011111100000000
          228 vmoveto
          -42 -8 5 40 41 8 5 42 42 7 -5 -41 -40 -8 -5 -41 hvcurveto
          hintmask 1011111010000000
          -159 vmoveto
          -41 -11 5 42 43 9 5 43 42 10 -5 -43 -42 -11 -5 -41 hvcurveto
          endchar
        </CharString>
        <CharString name="onehalf">
          209 0 81 220 80 307 -20 hstem
          98 93 240 91 62 93 vstem
          3 callgsubr
          376 104 rmoveto
          -396 -688 rlineto
          90 hlineto
          395 688 rlineto
          -41 -595 rmoveto
          21 6 8 20 10 vhcurveto
          29 12 22 10 23 11 rrcurveto
          35 15 20 26 67 vvcurveto
          100 -56 8 -67 -35 -49 -4 -7 -34 vhcurveto
          -76 vlineto
          4 37 38 3 20 hhcurveto
          41 12 -2 -31 -25 -6 -6 -24 -11 hvcurveto
          -80 -38 rlineto
          -40 -21 -3 -30 -81 vvcurveto
          -56 246 81 -155 vlineto
          endchar
        </CharString>
        <CharString name="onequarter">
          169 0 150 -79 79 538 -20 hstemhm
          98 93 321 93 hintmask 10111000
          3 callgsubr
          -20 -584 rmoveto
          90 25 callgsubr
          38 -688 rmoveto
          93 hlineto
          hintmask 01111000
          71 38 vlineto
          hintmask 10111000
          79 -38 94 -60 vlineto
          -29 -94 rlineto
          -60 hlineto
          105 225 rlineto
          -99 hlineto
          hintmask 01111000
          -101 -238 rlineto
          -66 151 vlineto
          endchar
        </CharString>
        <CharString name="ordfeminine">
          -144 315 76 85 62 74 84 hstem
          32 98 94 103 vstem
          126 310 rmoveto
          35 37 8 39 21 hvcurveto
          6 hlineto
          3 -42 rlineto
          99 228 hlineto
          107 -18 46 -131 -42 -47 -5 -7 -38 vhcurveto
          -78 vlineto
          3 37 34 3 21 hhcurveto
          73 8 -4 -57 hvcurveto
          -17 vlineto
          2 -28 -41 2 -19 hhcurveto
          -82 -22 -31 -84 -77 27 -36 67 hvcurveto
          47 81 rmoveto
          -38 -5 10 31 36 6 8 31 hvcurveto
          57 -18 hlineto
          -22 -2 -15 -4 -10 vhcurveto
          -16 -7 -14 -4 -24 hhcurveto
          endchar
        </CharString>
        <CharString name="ordmasculine">
          -132 310 84 218 84 hstem
          37 104 100 104 vstem
          191 310 rmoveto
          141 13 43 149 150 -13 44 -141 -140 -14 -44 -150 -149 14 -43 140 hvcurveto
          84 vmoveto
          -49 -1 8 100 101 1 9 49 50 0 -9 -101 -100 0 -8 -50 hvcurveto
          endchar
        </CharString>
        <CharString name="orn.001">
          -177 223 240 hstem
          48 241 vstem
          289 341 rmoveto
          105 -6 17 -117 -112 -6 -17 -105 -102 6 -16 112 117 6 16 102 vhcurveto
          endchar
        </CharString>
        <CharString name="orn.002">
          35 234 60 100 60 hstem
          44 130 callsubr
          100 60 vstem
          210 -26 callgsubr
          63 101 -16 callgsubr
          121 87 79 callgsubr
          -29 -21 22 28 29 21 21 29 28 22 -21 -29 -28 -22 -22 -28 hvcurveto
          endchar
        </CharString>
        <CharString name="orn.003">
          -99 46 596 hstem
          45 130 callsubr
          vstem
          211 -26 callgsubr
          63 101 -16 callgsubr
          63 101 27 callsubr
          endchar
        </CharString>
        <CharString name="orn.007">
          -177 222 241 hstem
          48 241 vstem
          168 222 rmoveto
          67 54 53 67 67 -54 54 -67 -67 -53 -54 -67 -67 53 -53 67 hvcurveto
          endchar
        </CharString>
        <CharString name="orn.010">
          280 92 callgsubr
          45 704 vstem
          397 hmoveto
          352 348 hlineto
          126 callsubr
          -207 -145 -143 -205 -204 145 -144 207 vhcurveto
          endchar
        </CharString>
        <CharString name="orn.015">
          51 91 callgsubr
          -1 187 117 callsubr
          187 60 -187 hlineto
          187 -272 rmoveto
          213 212 rlineto
          167 60 -192 hlineto
          -188 -187 rlineto
          endchar
        </CharString>
        <CharString name="orn.016">
          51 91 callgsubr
          -1 567 117 callsubr
          567 60 -567 hlineto
          endchar
        </CharString>
        <CharString name="orn.017">
          -454 144 callsubr
          0 60 vstem
          0 vmoveto
          60 688 -60 hlineto
          endchar
        </CharString>
        <CharString name="orn.018">
          278 46 596 hstem
          45 130 callsubr
          102 130 callsubr
          vstem
          211 -26 callgsubr
          370 hmoveto
          99 62 67 110 126 vvcurveto
          125 -67 111 -99 62 vhcurveto
          -32 -51 rlineto
          82 -51 56 -92 -104 vvcurveto
          -105 -55 -91 -83 -52 vhcurveto
          -275 51 -16 callgsubr
          244 hmoveto
          65 41 44 73 83 vvcurveto
          83 -44 73 -66 41 vhcurveto
          -32 -51 rlineto
          49 -31 33 -54 -61 vvcurveto
          -62 -33 -53 -48 -31 vhcurveto
          -149 50 27 callsubr
          118 hmoveto
          35 callgsubr
        </CharString>
        <CharString name="orn.019">
          35 234 60 100 60 hstem
          44 60 100 130 callsubr
          vstem
          338 -20 callsubr
          -89 36 79 callgsubr
          -28 -22 22 28 29 22 21 28 29 21 -21 -29 -28 -21 -22 -29 hvcurveto
          endchar
        </CharString>
        <CharString name="orn.020">
          -99 46 596 hstem
          70 130 callsubr
          vstem
          204 -20 callsubr
          -31 50 rmoveto
          35 callgsubr
        </CharString>
        <CharString name="orn.021">
          239 696 -20 hstem
          45 663 vstem
          376 -116 rmoveto
          79 41 253 184 255 vvcurveto
          188 -149 144 -183 -183 -148 -144 -188 -255 252 -184 79 -41 vhcurveto
          endchar
        </CharString>
        <CharString name="orn.022">
          -125 220 246 hstem
          48 301 vstem
          171 220 rmoveto
          98 80 83 40 40 -80 83 -98 -81 -42 -55 -68 -68 42 -55 81 hvcurveto
          endchar
        </CharString>
        <CharString name="oslash">
          139 callgsubr
          67 callgsubr
          hintmask 00000000
          hintmask 01101100
          41 -55 rmoveto
          114 hlineto
          26 51 rlineto
          hintmask 10011100
          36 callgsubr
          hintmask 01101100
          81 callgsubr
          hintmask 10101100
          167 71 rmoveto
          -66 callgsubr
        </CharString>
        <CharString name="oslashacute">
          139 callgsubr
          104 30 callgsubr
          hintmask 10101110
          193 598 -102 callsubr
          hintmask 01101110
          -152 -658 rmoveto
          114 hlineto
          26 51 rlineto
          hintmask 10011110
          36 callgsubr
          hintmask 01101110
          81 callgsubr
          hintmask 10101110
          167 71 rmoveto
          -66 callgsubr
        </CharString>
        <CharString name="otilde">
          -53 callgsubr
          80 60 callgsubr
          -102 76 167 139 -110 75 hintmask 00000000
          hintmask 11011001
          425 -43 callgsubr
          hintmask 11100110
          -101 callsubr
          hintmask 11011001
          119 callsubr
          -175 -751 -104 callsubr
        </CharString>
        <CharString name="p">
          -3 -8 121 -58 58 285 51 -51 112 -112 120 165 callsubr
          138 139 hintmask 10010110
          55 -198 rmoveto
          139 hlineto
          hintmask 01010110
          253 8 vlineto
          hintmask 10001110
          -48 24 42 -15 57 hhcurveto
          109 37 63 201 206 -40 56 -108 hvcurveto
          hintmask 10100110
          -49 -52 -13 -56 -24 hvcurveto
          -8 hlineto
          hintmask 10010110
          -4 61 rlineto
          -131 hlineto
          207 -397 rmoveto
          -35 -17 8 31 -9 hvcurveto
          -6 20 -1 33 50 vvcurveto
          51 1 34 7 22 vhcurveto
          27 9 17 9 34 hhcurveto
          64 6 -9 -134 -134 -6 -8 -64 hvcurveto
          endchar
        </CharString>
        <CharString name="paragraph">
          39 1 callsubr
          hstem
          229 100 59 99 vstem
          229 -144 rmoveto
          100 832 -100 hlineto
          -177 -12 -31 -203 -203 12 -29 177 hvcurveto
          159 -366 rmoveto
          99 832 -99 hlineto
          endchar
        </CharString>
        <CharString name="parenleft">
          -197 -150 893 hstem
          57 134 vstem
          195 -150 rmoveto
          102 hlineto
          -70 104 -36 46 297 vvcurveto
          295 36 47 70 104 vhcurveto
          -102 hlineto
          -102 -126 -36 -58 -262 vvcurveto
          -263 36 -50 102 -134 vhcurveto
          endchar
        </CharString>
        <CharString name="parenleft.ss02">
          49 callsubr
          -204 145 -144 207 hvcurveto
          endchar
        </CharString>
        <CharString name="parenright">
          -197 -150 893 hstem
          126 134 vstem
          20 -150 rmoveto
          101 hlineto
          102 134 37 50 263 vvcurveto
          262 -37 58 -102 126 vhcurveto
          -101 hlineto
          70 -104 36 -47 -295 vvcurveto
          -297 -36 -46 -70 -104 vhcurveto
          endchar
        </CharString>
        <CharString name="parenright.ss02">
          -117 92 callgsubr
          0 352 vstem
          0 vmoveto
          207 145 144 204 126 callsubr
          hvcurveto
          endchar
        </CharString>
        <CharString name="partialdiff">
          -13 -8 -26 callsubr
          111 hstem
          -31 callsubr
          vstem
          157 callgsubr
          79 -7 68 -12 66 hvcurveto
          -25 123 -52 82 -65 65 rrcurveto
          -146 -4 hlineto
          57 -58 52 -70 31 -104 -3 -3 rcurveline
          9 -25 -32 4 -30 hhcurveto
          -148 -15 -83 -180 -201 13 -61 197 hvcurveto
          112 vmoveto
          -70 0 12 139 139 0 12 70 71 0 -20 -131 -139 0 -12 -71 hvcurveto
          endchar
        </CharString>
        <CharString name="percent">
          283 -8 71 -42 -21 305 72 -66 71 242 72 -8 -20 hstemhm
          47 90 97 90 149 91 96 91 hintmask 1001101111000000
          186 311 rmoveto
          128 10 40 152 152 -10 41 -128 -129 -10 -41 -152 -152 10 -40 129 hvcurveto
          hintmask 0101011111000000
          -33 -311 rmoveto
          87 hlineto
          405 688 rlineto
          -88 hlineto
          -371 -306 rmoveto
          -47 -2 3 118 hvcurveto
          hintmask 1001101111000000
          118 2 3 47 46 2 -3 -118 vhcurveto
          hintmask 0101011111000000
          -118 -2 -3 -46 vhcurveto
          hintmask 1010101111000000
          426 -390 rmoveto
          128 11 39 153 152 -11 41 -128 -128 -11 -41 -152 -153 11 -39 128 hvcurveto
          71 vmoveto
          -47 -1 3 118 118 1 3 47 47 1 -3 -118 -118 -1 -3 -47 hvcurveto
          endchar
        </CharString>
        <CharString name="period">
          -250 0 92 callsubr
          vstem
          57 hmoveto
          119 callgsubr
        </CharString>
        <CharString name="periodcentered">
          -250 231 92 callsubr
          vstem
          57 231 -90 callsubr
        </CharString>
        <CharString name="perthousand">
          433 -8 64 -35 -21 265 64 30 64 209 64 -8 -20 hstemhm
          47 81 82 81 84 81 83 81 36 81 82 82 -20 callgsubr
          hintmask 0101101100000000
          169 359 rmoveto
          113 9 36 133 131 -9 37 -113 -113 -9 -37 -131 -133 9 -36 113 hvcurveto
          -86 -359 rmoveto
          88 hlineto
          hintmask 0001011100000000
          412 688 rlineto
          -88 hlineto
          -326 -265 rmoveto
          -40 -1 2 103 hvcurveto
          hintmask 0000101100000000
          102 1 2 40 40 1 -2 -102 vhcurveto
          hintmask 0001011100000000
          -103 -1 -2 -40 vhcurveto
          hintmask 1010000011110000
          328 -431 rmoveto
          52 callgsubr
          281 hmoveto
          52 callgsubr
          -281 64 rmoveto
          -39 -2 2 102 103 2 2 39 41 1 -2 -103 -102 -1 -2 -41 hvcurveto
          281 hmoveto
          -40 -1 2 102 103 1 2 40 40 1 -2 -103 -102 -1 -2 -40 hvcurveto
          endchar
        </CharString>
        <CharString name="pi">
          0 21 -21 400 110 hstem
          56 139 124 140 vstem
          319 hmoveto
          140 510 -403 -510 139 400 124 hlineto
          endchar
        </CharString>
        <CharString name="plus">
          -10 198 159 callsubr
          63 56 callgsubr
          endchar
        </CharString>
        <CharString name="plusminus">
          -10 16 110 200 159 callsubr
          191 56 callgsubr
          -134 -310 rmoveto
          84 callgsubr
          endchar
        </CharString>
        <CharString name="product">
          101 565 123 hstem
          63 150 189 149 vstem
          402 -189 rmoveto
          149 877 -488 -877 150 754 189 hlineto
          endchar
        </CharString>
        <CharString name="q">
          -2 -8 121 285 51 -51 112 -112 120 24 callsubr
          hintmask 10011100
          317 -198 rmoveto
          139 hlineto
          hintmask 10101100
          708 -131 vlineto
          hintmask 11001100
          -4 -61 rlineto
          -8 hlineto
          hintmask 10011100
          56 -24 -51 13 -50 hhcurveto
          -108 -40 -57 -206 -201 38 -62 109 56 42 15 48 25 hvcurveto
          7 hlineto
          -68 58 rmoveto
          -63 -6 8 134 134 6 9 63 32 17 -7 -23 9 hvcurveto
          9 -23 1 -35 -55 vvcurveto
          -53 -1 -34 -6 -19 vhcurveto
          -28 -10 -16 -8 -35 hhcurveto
          endchar
        </CharString>
        <CharString name="question">
          -50 callsubr
        </CharString>
        <CharString name="question.case">
          -50 callsubr
        </CharString>
        <CharString name="questiondown">
          -107 -186 124 436 136 hstemhm
          45 149 -2 150 -138 126 hintmask 11010000
          192 374 40 callsubr
          hintmask 11100000
          44 -696 rmoveto
          54 74 7 10 50 hvcurveto
          116 vlineto
          -5 -40 -53 -4 -33 hhcurveto
          -69 -25 3 62 53 8 8 46 33 callsubr
          -54 -27 -23 -37 -98 vvcurveto
          -133 65 -43 126 vhcurveto
          endchar
        </CharString>
        <CharString name="questiondown.case">
          -68 -8 124 436 136 hstemhm
          48 148 -2 151 -138 126 hintmask 11010000
          194 552 rmoveto
          151 136 -151 hlineto
          hintmask 11100000
          44 -696 rmoveto
          55 74 7 10 49 hvcurveto
          116 vlineto
          -5 -39 -54 -4 -32 hhcurveto
          -70 -25 3 62 53 8 8 47 33 callsubr
          -55 -27 -22 -37 -98 vvcurveto
          -133 64 -43 126 vhcurveto
          endchar
        </CharString>
        <CharString name="quotedbl">
          -96 429 259 hstem
          56 127 51 128 vstem
          71 429 rmoveto
          97 hlineto
          15 67 callsubr
          193 -203 rmoveto
          98 hlineto
          15 203 rlineto
          56 -128 -56 vlineto
          endchar
        </CharString>
        <CharString name="quotedblbase">
          -58 -140 57 83 128 hstem
          57 143 56 143 vstem
          51 -83 rmoveto
          -57 21 callsubr
          -15 -50 vhcurveto
          200 hmoveto
          -57 vlineto
          132 44 callgsubr
          -15 -49 vhcurveto
          endchar
        </CharString>
        <CharString name="quotedblleft">
          -58 420 128 83 57 hstem
          57 143 56 36 callsubr
          199 -92 rmoveto
          143 128 -54 16 hlineto
          53 11 14 49 vhcurveto
          57 vlineto
          -133 -16 -36 -140 hvcurveto
          endchar
        </CharString>
        <CharString name="quotedblright">
          -58 156 callgsubr
          57 143 43 callgsubr
          199 hmoveto
          -58 21 callsubr
          -14 -50 vhcurveto
          endchar
        </CharString>
        <CharString name="quoteleft">
          -257 420 128 83 57 hstem
          57 36 callsubr
          endchar
        </CharString>
        <CharString name="quoteright">
          -257 156 callgsubr
          43 callgsubr
          endchar
        </CharString>
        <CharString name="quotesinglbase">
          -257 -140 57 83 128 hstem
          57 143 vstem
          51 -83 rmoveto
          -57 21 callsubr
          -15 -50 vhcurveto
          endchar
        </CharString>
        <CharString name="quotesingle">
          116 callsubr
          71 429 rmoveto
          97 hlineto
          15 67 callsubr
          endchar
        </CharString>
        <CharString name="r">
          29 callsubr
          165 callsubr
          hintmask 10110000
          55 hmoveto
          115 callsubr
          hintmask 11010000
          -41 callgsubr
          hintmask 10110000
          76 callsubr
          endchar
        </CharString>
        <CharString name="racute">
          29 callsubr
          108 145 165 callsubr
          hintmask 10111000
          120 598 -102 callsubr
          -65 -603 rmoveto
          115 callsubr
          hintmask 11011000
          -41 callgsubr
          hintmask 10111000
          76 callsubr
          endchar
        </CharString>
        <CharString name="radical">
          117 -106 876 hstem
          22 578 vstem
          234 -106 rmoveto
          178 hlineto
          188 876 rlineto
          -132 hlineto
          -152 -738 -122 314 -172 -73 27 -76 53 22 rlineto
          endchar
        </CharString>
        <CharString name="rcaron">
          29 callsubr
          115 138 165 callsubr
          hintmask 10111000
          110 605 -99 callsubr
          30 -735 rmoveto
          115 callsubr
          hintmask 11011000
          -41 callgsubr
          hintmask 10111000
          76 callsubr
          endchar
        </CharString>
        <CharString name="rcommaaccent">
          -159 -17 callgsubr
          82 84 callsubr
          165 callsubr
          -138 142 hintmask 11101100
          55 hmoveto
          115 callsubr
          hintmask 11110100
          -41 callgsubr
          hintmask 11101100
          76 callsubr
          hintmask 11101010
          -5 -742 rmoveto
          -57 vlineto
          hintmask 11101100
          133 15 31 121 hvcurveto
          76 vlineto
          hintmask 11101010
          -142 -114 54 -14 hlineto
          -34 -11 -9 -49 vhcurveto
          endchar
        </CharString>
        <CharString name="registered">
          144 -8 54 243 66 104 69 114 54 hstem
          66 56 84 81 89 82 78 56 vstem
          329 696 rmoveto
          140 callgsubr
          142 callgsubr
          hvcurveto
          -650 49 callgsubr
          129 363 rmoveto
          74 -12 45 -94 vhcurveto
          -146 -369 81 130 43 hlineto
          8 hlineto
          42 -130 rlineto
          86 hlineto
          -51 143 rlineto
          37 19 6 42 46 vvcurveto
          -131 -54 rmoveto
          -40 104 43 hlineto
          41 5 -7 -44 -43 -3 -10 -46 hvcurveto
          endchar
        </CharString>
        <CharString name="rightCloseDialog">
          95 91 callgsubr
          -1 187 378 60 vstem
          624 688 rmoveto
          -625 -60 565 -568 -190 hlineto
          -188 -187 rlineto
          -85 vlineto
          213 212 rlineto
          165 hlineto
          60 hlineto
          -438 60 rmoveto
          -187 -60 187 hlineto
          endchar
        </CharString>
        <CharString name="rightOpenDialog">
          96 91 callgsubr
          565 60 vstem
          625 688 rmoveto
          -626 -60 566 -568 -566 -60 566 hlineto
          60 hlineto
          endchar
        </CharString>
        <CharString name="ring">
          -218 601 63 100 64 hstem
          13 81 108 81 vstem
          147 601 -79 callgsubr
          endchar
        </CharString>
        <CharString name="s">
          -83 -8 75 callgsubr
          42 callgsubr
          221 -8 rmoveto
          -96 callgsubr
          -9 47 73 -6 55 hhcurveto
          endchar
        </CharString>
        <CharString name="sacute">
          -83 -8 75 callgsubr
          80 145 42 callgsubr
          158 598 -102 callsubr
          63 -611 rmoveto
          -96 callgsubr
          -9 47 73 -6 55 hhcurveto
          endchar
        </CharString>
        <CharString name="sacute.loclPLK">
          -83 -8 75 callgsubr
          80 145 42 callgsubr
          158 598 -67 callsubr
          63 -611 rmoveto
          -96 callgsubr
          -9 47 73 -6 55 hhcurveto
          endchar
        </CharString>
        <CharString name="scaron">
          -83 -8 75 callgsubr
          87 138 42 callgsubr
          152 605 -99 callsubr
          154 -743 rmoveto
          -96 callgsubr
          -9 47 73 -6 55 hhcurveto
          endchar
        </CharString>
        <CharString name="scedilla">
          -83 -6 109 304 111 42 callgsubr
          399 156 rmoveto
          122 -40 19 -57 8 vhcurveto
          -96 13 rlineto
          -37 5 -3 4 36 vvcurveto
          39 17 5 63 33 53 -4 -5 41 vhcurveto
          104 vlineto
          9 -36 -65 7 -52 hhcurveto
          -112 -76 -26 -129 -96 17 -46 72 -10 hvcurveto
          100 -14 rlineto
          40 -6 5 -2 -40 vvcurveto
          -38 -9 -8 -74 -40 -58 4 4 -39 vhcurveto
          -104 vlineto
          32 -6 45 -5 43 -2 -64 -178 rcurveline
          -5 125 vlineto
          34 182 rlineto
          86 7 52 35 121 vvcurveto
          endchar
        </CharString>
        <CharString name="scircumflex">
          -83 -8 75 callgsubr
          87 138 42 callgsubr
          64 605 -107 callgsubr
          157 -621 rmoveto
          -96 callgsubr
          -9 47 73 -6 55 hhcurveto
          endchar
        </CharString>
        <CharString name="scommaaccent">
          -83 -17 callgsubr
          53 75 callgsubr
          hstemhm
          32 134 -18 142 -24 133 hintmask 11110100
          221 -8 rmoveto
          hintmask 11111010
          -96 callgsubr
          hintmask 11110100
          -9 47 73 -6 55 hhcurveto
          -79 -224 -84 callgsubr
        </CharString>
        <CharString name="second">
          -99 369 319 hstemhm
          53.5 134 42 134.5 hintmask 00000000
          hintmask 11100000
          105 callgsubr
          155 -319 rmoveto
          98 hlineto
          43 203 8 116 rlineto
          -128 hlineto
          endchar
        </CharString>
        <CharString name="section">
          77 -171 123 621 123 hstemhm
          36 138 -66 141 92 141 -65 136 hintmask 11100100
          277 -171 rmoveto
          hintmask 11101000
          123 82 35 133 40 -5 30 -14 24 hvcurveto
          hintmask 11010100
          70 16 20 57 95 vvcurveto
          120 -55 24 -72 25 vhcurveto
          -136 46 rlineto
          -36 12 -5 4 37 vvcurveto
          39 16 7 81 54 60 -4 -2 19 vhcurveto
          112 vlineto
          6 -17 -66 11 -83 hhcurveto
          -123 -82 -35 -133 -41 4 -30 15 -24 hvcurveto
          hintmask 11101000
          -70 -16 -21 -56 -96 vvcurveto
          -118 55 -25 73 -25 vhcurveto
          136 -46 rlineto
          36 -12 5 -4 -36 vvcurveto
          -40 -16 -7 -82 -55 -57 4 3 -20 vhcurveto
          -113 vlineto
          hintmask 11100100
          -6 19 67 -11 80 hhcurveto
          111 336 rmoveto
          -7 -12 4 5 -15 hvcurveto
          -142 49 rlineto
          -31 10 -7 15 39 vvcurveto
          49 9 23 19 8 12 -4 -5 16 vhcurveto
          144 -49 rlineto
          26 -9 9 -16 -39 vvcurveto
          -48 -10 -24 -19 vhcurveto
          endchar
        </CharString>
        <CharString name="semicolon">
          -250 -148 61 87 136 238 92 callsubr
          vstem
          57 374 rmoveto
          151 136 -151 hlineto
          -6 -597 53 callgsubr
        </CharString>
        <CharString name="seven">
          -22 21 -21 563 125 hstem
          28 436 vstem
          84 hmoveto
          161 hlineto
          219 576 rlineto
          112 -436 -125 279 vlineto
          endchar
        </CharString>
        <CharString name="seven.dnom">
          -228 21 -21 307 72 hstem
          19 250 vstem
          49 hmoveto
          53 callsubr
          endchar
        </CharString>
        <CharString name="seven.numr">
          -228 615 72 hstem
          19 250 vstem
          49 308 rmoveto
          53 callsubr
          endchar
        </CharString>
        <CharString name="seven.tnum">
          49 21 -21 563 125 hstem
          53 462 vstem
          122 hmoveto
          160 hlineto
          233 576 rlineto
          112 -462 -125 306 vlineto
          endchar
        </CharString>
        <CharString name="seveneighths">
          212 112 callsubr
          91 69 231 72 hstemhm
          19 250 147 90 -87 89 99 88 -86 90 -20 callgsubr
          hintmask 0111111001000000
          77 hmoveto
          89 25 callgsubr
          -423 -380 rmoveto
          53 callsubr
          hintmask 1011101001000000
          382 -619 -1 callsubr
          hintmask 1011100110000000
          -36 callsubr
          hintmask 1011101001000000
          9 callsubr
          hintmask 1011100110000000
          -31 callgsubr
          hintmask 1011101001000000
          -32 callsubr
        </CharString>
        <CharString name="six">
          48 137 callgsubr
          47 149 180 144 vstem
          291 -8 rmoveto
          188 41 60 178 174 -63 29 -122 -87 -32 -30 -18 -13 hvcurveto
          -7 hlineto
          162 13 25 123 159 callgsubr
          -58 -77 9 -50 hhcurveto
          -133 -66 -30 -92 -33 hvcurveto
          -18 -51 -7 -76 -105 vvcurveto
          -112 6 -77 17 -46 vhcurveto
          -99 31 64 -16 104 callgsubr
          16 -5 -93 -90 -17 -6 -74 hvcurveto
          endchar
        </CharString>
        <CharString name="six.dnom">
          -187 -4 121 callgsubr
          -4 -36 callgsubr
        </CharString>
        <CharString name="six.numr">
          -187 304 121 callgsubr
          304 -36 callgsubr
        </CharString>
        <CharString name="six.ss01">
          39 -8 123 195 121 250 7 hstem
          34 150 189 145 vstem
          276 -8 rmoveto
          205 37 85 136 124 -22 94 -156 -47 -34 -6 -13 -27 hvcurveto
          -4 3 51 114 103 105 58 47 rlinecurve
          7 -171 vlineto
          -89 -78 -146 -185 -188 vvcurveto
          -155 36 -90 206 vhcurveto
          1 123 rmoveto
          -70 -23 4 101 76 19 14 74 75 21 -4 -94 -87 -18 -10 -78 hvcurveto
          endchar
        </CharString>
        <CharString name="six.tnum">
          49 137 callgsubr
          49 149 179 144 vstem
          293 -8 rmoveto
          187 41 60 178 174 -62 29 -122 -81 -35 -25 -23 -16 hvcurveto
          -7 hlineto
          162 12 25 124 159 callgsubr
          -57 -77 9 -51 hhcurveto
          -120 -66 -25 -73 -35 hvcurveto
          -27 -54 -9 -82 -120 vvcurveto
          -113 7 -77 16 -49 vhcurveto
          -96 31 64 -15 104 callgsubr
          15 -5 -93 -90 -16 -6 -74 hvcurveto
          endchar
        </CharString>
        <CharString name="slash">
          154 callgsubr
          2 -55 rmoveto
          121 hlineto
          237 798 rlineto
          -122 hlineto
          endchar
        </CharString>
        <CharString name="space">
          -302 endchar
        </CharString>
        <CharString name="sterling">
          0 0 124 169 122 157 124 hstem
          103 149 vstem
          252 124 rmoveto
          169 156 122 -156 5 vlineto
          80 5 38 25 18 vhcurveto
          13 17 27 3 43 hhcurveto
          23 42 -4 -4 33 hvcurveto
          117 vlineto
          9 -33 -57 6 -46 hhcurveto
          -188 -39 -77 -199 hvcurveto
          -5 -66 -122 65 -169 -65 -124 438 124 vlineto
          endchar
        </CharString>
        <CharString name="summation">
          92 -189 123 631 123 hstem
          60 486 vstem
          60 -189 rmoveto
          486 123 -310 hlineto
          236 315 -236 316 rlineto
          310 123 -486 -119 hlineto
          237 -320 -237 -319 rlineto
          endchar
        </CharString>
        <CharString name="t">
          -166 61 callsubr
          hstem
          95 140 vstem
          95 hmoveto
          140 398 0 callgsubr
          hlineto
          endchar
        </CharString>
        <CharString name="tbar">
          -166 21 -21 188 109 101 112 hstem
          95 140 vstem
          331 297 rmoveto
          -96 101 0 callgsubr
          -101 -77 -109 77 -188 140 188 96 hlineto
          endchar
        </CharString>
        <CharString name="tcaron">
          -166 61 callsubr
          -81 81 178 -20 hstemhm
          95 140 141 128 hintmask 00000000
          hintmask 10111100
          361 429 rmoveto
          98 hlineto
          45 203 rlineto
          56 -128 -56 vlineto
          -281 -632 rmoveto
          140 hlineto
          hintmask 11011100
          398 0 callgsubr
          vlineto
          endchar
        </CharString>
        <CharString name="thorn">
          -3 -8 121 -58 58 285 52 -52 120 165 callsubr
          138 139 hintmask 10011100
          55 -190 rmoveto
          139 hlineto
          hintmask 01011100
          245 8 vlineto
          hintmask 10011100
          -48 24 43 -15 56 hhcurveto
          109 37 62 202 206 -40 56 -108 hvcurveto
          hintmask 10101100
          -49 -49 -12 -56 -23 hvcurveto
          -8 293 -139 hlineto
          207 -630 rmoveto
          -37 -17 9 36 -8 hvcurveto
          -5 20 -1 32 45 vvcurveto
          hintmask 10011100
          48 1 34 8 22 vhcurveto
          31 8 17 8 34 hhcurveto
          64 6 -9 -134 hvcurveto
          hintmask 10101100
          -134 -6 -8 -64 vhcurveto
          endchar
        </CharString>
        <CharString name="three">
          3 141 callgsubr
          314 150 -143 149 hintmask 11101000
          231 34 callsubr
          -171 -58 26 callgsubr
          21 -13 -75 -78 -30 -4 -83 -41 106 callgsubr
        </CharString>
        <CharString name="three.dnom">
          -210 -4 95 callsubr
          -4 -38 callsubr
        </CharString>
        <CharString name="three.numr">
          -210 304 95 callsubr
          304 -38 callsubr
        </CharString>
        <CharString name="three.tnum">
          49 141 callgsubr
          338 150 -144 150 hintmask 11101000
          255 34 callsubr
          -172 -57 26 callgsubr
          20 -13 -75 -78 -29 -4 -84 -40 106 callgsubr
        </CharString>
        <CharString name="threeeighths">
          267 112 callsubr
          80 72 -61 69 81 70 85 72 -4 -20 hstemhm
          76 133 -31 91 -88 91 198 90 -87 89 99 88 -86 90 -20 callgsubr
          hintmask 1011011000110010
          135 304 rmoveto
          108 29 33 72 hvcurveto
          hintmask 1010111010010010
          62 -22 20 -41 9 vhcurveto
          3 vlineto
          hintmask 1010111001010010
          40 9 20 25 56 vvcurveto
          72 -36 27 -97 -33 -46 -5 -5 -31 vhcurveto
          -67 vlineto
          3 28 36 2 26 hhcurveto
          51 11 -3 -38 -38 -11 -6 -31 hvcurveto
          -60 -70 hlineto
          hintmask 1011011000110010
          60 hlineto
          35 10 -6 -41 -39 -15 -3 -45 -23 -40 2 3 -34 hvcurveto
          -67 vlineto
          -6 32 46 -4 33 hhcurveto
          hintmask 0110110100110010
          -3 -304 rmoveto
          89 25 callgsubr
          hintmask 1010111000110010
          84 -692 -1 callsubr
          hintmask 1010111000101100
          -36 callsubr
          hintmask 1010111000110010
          9 callsubr
          hintmask 1010111000101100
          -31 callgsubr
          hintmask 1010111000110010
          -32 callsubr
        </CharString>
        <CharString name="threequarters">
          227 0 150 -79 79 156 80 80 73 77 80 -8 -20 hstemhm
          89 144 -46 95 -91 94 285 92 hintmask 1011100011000000
          40 392 rmoveto
          -74 vlineto
          -7 35 45 -5 30 hhcurveto
          107 28 37 72 hvcurveto
          hintmask 1011101001000000
          53 -20 24 -32 11 vhcurveto
          4 vlineto
          hintmask 1011100101000000
          32 12 17 144 callgsubr
          -95 -32 -45 -5 -6 -32 vhcurveto
          -76 vlineto
          5 34 34 2 23 hhcurveto
          45 9 -3 -34 -35 -9 -5 -25 hvcurveto
          hintmask 1011100011000000
          -64 -73 64 hlineto
          29 9 -6 -35 -36 -13 -3 -40 -20 -39 3 3 -39 hvcurveto
          97 -392 rmoveto
          89 hlineto
          hintmask 1011010011000000
          395 688 rlineto
          -89 hlineto
          38 -688 rmoveto
          92 hlineto
          hintmask 0111100011000000
          71 39 vlineto
          hintmask 1011100011000000
          79 -39 94 -60 vlineto
          -28 -94 rlineto
          -61 hlineto
          106 225 rlineto
          -100 hlineto
          hintmask 0111100011000000
          -101 -238 rlineto
          -66 152 vlineto
          endchar
        </CharString>
        <CharString name="tilde">
          -142 598 -75 callsubr
          12 102 callsubr
          hintmask 00000000
          hintmask 01110000
          359 -9 callgsubr
        </CharString>
        <CharString name="tildecomb">
          598 -75 callsubr
          -360 102 callsubr
          hintmask 00000000
          hintmask 01110000
          -13 -9 callgsubr
        </CharString>
        <CharString name="tildecomb.case">
          743 -75 callsubr
          -360 102 callsubr
          hintmask 00000000
          hintmask 01110000
          -13 8 callgsubr
          hintmask 10110000
          -101 callsubr
          hintmask 01110000
          -92 callsubr
          endchar
        </CharString>
        <CharString name="trademark">
          162 387 106 131 64 hstem
          122 70 113 66 177 67 vstem
          122 387 rmoveto
          70 237 75 64 -220 -64 75 hlineto
          183 -237 rmoveto
          66 210 4 hlineto
          58 -210 rlineto
          54 hlineto
          57 210 rlineto
          4 -210 67 301 -99 hlineto
          -52 -195 rlineto
          -5 hlineto
          -54 195 rlineto
          -100 hlineto
          endchar
        </CharString>
        <CharString name="two">
          12 0 125 447 124 hstem
          45 146 140 149 vstem
          191 143 rmoveto
          41 1 21 8 14 vhcurveto
          6 11 12 6 16 7 48 22 50 23 47 21 rrcurveto
          64 103 callsubr
          -54 vhcurveto
          -115 vlineto
          6 61 67 5 37 hhcurveto
          86 24 -6 -71 -55 -10 -10 -49 -23 hvcurveto
          -44 -20 -43 -20 -44 -21 rrcurveto
          -91 -42 -5 -52 -162 vvcurveto
          -90 435 125 -289 vlineto
          endchar
        </CharString>
        <CharString name="two.dnom">
          -204 0 138 callsubr
          80 -30 callgsubr
        </CharString>
        <CharString name="two.numr">
          -204 308 138 callsubr
          388 -30 callgsubr
        </CharString>
        <CharString name="two.tnum">
          49 0 125 447 124 hstem
          65 145 140 149 vstem
          210 143 rmoveto
          40 2 21 7 14 vhcurveto
          7 12 11 6 16 7 48 22 50 23 48 21 rrcurveto
          63 103 callsubr
          -53 vhcurveto
          -115 vlineto
          6 60 67 5 37 hhcurveto
          87 23 -6 -71 -55 -10 -10 -49 -23 hvcurveto
          -43 -20 -44 -20 -44 -21 rrcurveto
          -91 -42 -4 -52 -162 vvcurveto
          -90 434 125 -289 vlineto
          endchar
        </CharString>
        <CharString name="u">
          -86 callgsubr
          hstemhm
          54 -44 callgsubr
          hintmask 01011100
          331 hmoveto
          -94 callgsubr
          hintmask 10011100
          -61 callsubr
          hintmask 00111100
          -69 callgsubr
          endchar
        </CharString>
        <CharString name="uacute">
          -86 callgsubr
          108 145 59 callgsubr
          206 598 -102 callsubr
          125 -603 rmoveto
          -94 callgsubr
          hintmask 10011110
          -61 callsubr
          hintmask 00111110
          -69 callgsubr
          endchar
        </CharString>
        <CharString name="ubreve">
          -86 callgsubr
          111 79 107 callgsubr
          -75 -12 callgsubr
          -75 47 callgsubr
          hintmask 0101101100000000
          398 -61 callgsubr
          hintmask 0101110010000000
          -67 32 callgsubr
          hintmask 1001110010000000
          -61 callsubr
          hintmask 0011110010000000
          -69 callgsubr
          endchar
        </CharString>
        <CharString name="ucircumflex">
          -86 callgsubr
          115 138 59 callgsubr
          107 605 -107 callgsubr
          224 -613 rmoveto
          -94 callgsubr
          hintmask 10011110
          -61 callsubr
          hintmask 00111110
          -69 callgsubr
          endchar
        </CharString>
        <CharString name="udieresis">
          -86 callgsubr
          134 104 -12 callsubr
          hintmask 0000000000000000
          hintmask 0101101100000000
          106 624 -89 callgsubr
          hintmask 0101110010000000
          37 -728 rmoveto
          -94 callgsubr
          hintmask 1001110010000000
          -61 callsubr
          hintmask 0011110010000000
          -69 callgsubr
          endchar
        </CharString>
        <CharString name="ugrave">
          -86 callgsubr
          108 145 59 callgsubr
          213 598 -89 callsubr
          221 -738 rmoveto
          -94 callgsubr
          hintmask 10011110
          -61 callsubr
          hintmask 00111110
          -69 callgsubr
          endchar
        </CharString>
</ttFont>
